<?xml version="1.0" encoding="utf-8"?>
<!-- Generator: Adobe Illustrator 24.2.1, SVG Export Plug-In . SVG Version: 6.00 Build 0)  -->
<svg version="1.1" id="Layer_1" xmlns="http://www.w3.org/2000/svg" xmlns:xlink="http://www.w3.org/1999/xlink" x="0px" y="0px"
	 viewBox="0 0 480 640" style="enable-background:new 0 0 480 640;" xml:space="preserve">
<style type="text/css">
	.st0{fill:#F1C393;}
	.st1{fill:#DEB587;}
	.st2{opacity:0.7;fill:#E3AF76;}
	.st3{fill:#FFFFFF;}
	.st4{fill:#EEB27B;}
	.st5{fill:#E3AF76;}
	.st6{fill:#D19566;}
	.st7{opacity:0.21;fill:#FFFFFF;}
	.st8{fill:#231F20;}
	.st9{opacity:0.62;fill:#D7A46E;}
	.st10{fill:#9F8360;}
	.st11{stroke:#454547;stroke-miterlimit:10;}
	.st12{fill:none;stroke:#85878A;stroke-width:0.5;stroke-miterlimit:10;}
	.st13{opacity:0.7;}
	.st14{opacity:0.21;}
	.st15{opacity:0.62;}
	.st16{fill:#D7A46E;}
</style>
<g>
	<g>
		<path class="st0" d="M-202.62,202.55c9.95-27.85,15.75-92.91,15.75-92.95l-2.21-84.21c-4.86-12.3-17.82-22.02-17.82-22.02
			l-11.34-38.61c-38.88-63.49-101.24-36.89-101.24-36.89c-8.91-6.86-26.73-7.72-26.73-7.72c-47.79-0.86-76.13,29.17-76.13,29.17
			l-16.95,52.01c0,0-13.45,7.06-17.89,17.32c-7.78,17.99-9.44,46.59-9.47,67.26l3.08,35.85c4.43,26.57,12.24,58.34,12.45,59.19
			c12.36,30.51,32.93,64.09,66.86,96.07c0.27-6.7,2.28-19.82,13.31-27.32c0,0-6.36,21.31,5.63,29.08c42.26-12.47,81.66,0,81.66,0
			c12-7.77,5.63-29.08,5.63-29.08c11.76,7.99,13.27,22.37,13.34,28.56c1.68-1.19,3.39-2.43,5.13-3.73
			C-228.45,248.06-211.65,222.77-202.62,202.55z"/>
		<path class="st0" d="M-184.14,115.58l-2.44,19.55c1.01-6.87,2.12-14.65,3.25-23.03C-183.61,113.32-183.89,114.5-184.14,115.58z"/>
	</g>
	<path class="st1" d="M-182.22,67.43c0,0,30.32-30.32,20.02,26.88c0,0-16.02,77.08-44.05,67.43l6.86-97.74"/>
	<path class="st1" d="M-466.78,67.43c0,0-30.32-30.32-20.02,26.88c0,0,16.02,77.08,44.05,67.43L-449.62,64"/>
	<path class="st2" d="M-289.4,70.32c0,0,21.45,56.73,85.8,9.34C-203.6,79.66-211.32-30.64-289.4,70.32z"/>
	<path class="st3" d="M-274.81,70.89c0,0,19.73-30.03,63.49,0C-211.32,70.89-243.92,98.35-274.81,70.89z"/>
	<path class="st4" d="M-302.27,70.32v46.05c0,0,12.87,18.02,30.03,0L-302.27,70.32z"/>
	<path class="st5" d="M-286.83,66.89c0,0,5.15,26.71,20.59,31.66C-266.23,98.54-286.83,70.6-286.83,66.89z"/>
	<path class="st2" d="M-351.18,71.27c0,0-21.45,56.72-85.8,9.34C-436.98,80.62-429.26-29.68-351.18,71.27z"/>
	<path class="st3" d="M-364.05,67.46c0,0-19.73-30.03-63.49,0C-427.54,67.46-394.93,94.92-364.05,67.46z"/>
	<path class="st4" d="M-336.16,72.03v46.05c0,0-12.87,18.02-30.03,0L-336.16,72.03z"/>
	<path class="st5" d="M-353.75,67.26c0,0-5.15,26.71-20.59,31.66C-374.34,98.92-353.75,70.98-353.75,67.26z"/>
	<path class="st5" d="M-364.87,220.42c0,0-3.79,13.28,27.19,23.4h31.62c0,0,23.48-9.84,23.48-23.08L-364.87,220.42z"/>
	<path class="st6" d="M-365.18,220.36c0,0,22.91,1.13,28.71-10.36c0,0,21.83,4.6,26.34,0c0,0,8.37,10.42,27.55,10.74L-365.18,220.36
		z"/>
	<path class="st2" d="M-459.23,79.66c0,0,47.13,46.14,55.71,121.65c0,0,1.72,27.46,12.01,58.34l5.72,16.02l-34.43-35l-22.42-32.4
		l-8.57-21.52l-8.18-20.54l-3.22-29.69l-1.64-20.1l-1.61-33.7L-459.23,79.66z"/>
	<path class="st2" d="M-192.08,86.63c0,0-46.68,44.32-55.26,119.82c0,0-1.72,27.46-12.01,58.34l-5.72,14.3l33.59-29.3l24.25-32.09
		l10.12-22.4l5.64-23.96l3.22-29.69l5.1-28.73V88.05L-192.08,86.63z"/>
	<polygon class="st4" points="-357.61,131.52 -351.18,112.93 -319.94,102.41 -289.4,105.78 -283.96,131.52 -323.36,139.43 	"/>
	<path class="st7" d="M-309.24,237.61c0,2.09-6.55,3.78-14.64,3.78c-8.08,0-14.64-1.69-14.64-3.78c0-2.08,6.55-3.78,14.64-3.78
		C-315.8,233.83-309.24,235.52-309.24,237.61z"/>
	<path class="st0" d="M-399.01,237.73c0,0-41.29-67.62-45.26-104.2l-1.92-27.28V95.08l17.59,15.91l19.3,34.47L-399.01,237.73z"/>
	<path class="st0" d="M-251.71,243.82c0,0,39.57-67.62,43.55-104.2l1.92-27.28v-8.9l-17.59,13.65l-17.59,34.47L-251.71,243.82z"/>
	<ellipse class="st7" cx="-243.07" cy="3.26" rx="14.64" ry="10.3"/>
	<path class="st8" d="M-278.25,28.85c0,0,24.88-51.78,66.92-8.02l16.3,23.46c0,0-51.71-53.2-72.07-9.44L-278.25,28.85z"/>
	<ellipse class="st7" cx="-357.61" cy="23.78" rx="14.64" ry="10.3"/>
	<path class="st8" d="M-357.61,28.85c0,0-41.18-38.61-83.23,5.15v10.3c0,0,41.18-25.74,72.07-9.44L-357.61,28.85z"/>
	<path class="st9" d="M-350.44,157.43c0,0,30.5,37.01,56.3,0"/>
	<g>
		<path class="st4" d="M-359.09,122.1c0,0-32.6,39.41,14.59,36.44c0,0,26.6,23.47,48.05-0.48"/>
		<path class="st4" d="M-282.35,122.1c0,0,32.6,39.41-14.59,36.44c0,0-24.88,23.47-46.33-0.48"/>
	</g>
	<path class="st0" d="M-343.27,124.37c0,0-10.48,16.72,11.83,24.52c0,0,17.73,5.3,27.45-2.21c0,0,15.59-3.43,7.53-22.31
		l-23.48-70.26L-343.27,124.37z"/>
	<path class="st10" d="M-343.27,156.12c0,1.12-3.21,2.03-7.17,2.03c-3.96,0-7.17-0.91-7.17-2.03c0-1.12,3.21-2.03,7.17-2.03
		C-346.48,154.09-343.27,155-343.27,156.12z"/>
	<path class="st10" d="M-282.23,156.12c0,1.12-3.21,2.03-7.17,2.03c-3.96,0-7.17-0.91-7.17-2.03c0-1.12,3.21-2.03,7.17-2.03
		C-285.44,154.09-282.23,155-282.23,156.12z"/>
	<ellipse class="st7" cx="-320.34" cy="138.1" rx="14.64" ry="10.3"/>
	<path class="st11" d="M-378.68,293.69"/>
	<path class="st8" d="M-168.02,6.81c0,0-41.31-126.99-121.49-141.57c0,0-115.82-31.75-179.81,103.82c0,0-11.34,42.9-12.15,92.67
		l12.71,40.44c0.28,5.63,0.8,11.91,1.7,18.75l0,0.01l0,0.03c0.44,3.34,0.97,6.82,1.61,10.41l6.35,41.03
		c10.32,47.17,74.87,108.83,74.87,108.83c0,0,55.24,67.29,119.44,0c0,0,0.08-0.87,0.08-2.34c5.19-3.01,62.09-37.38,72.96-102.48
		l7.59-60.83C-178.64,92.11-165.44,32.07-168.02,6.81z M-202.62,202.55c-9.52,21.3-27.64,48.24-62.08,76.23
		c0-5.85-1.23-20.86-13.34-29.09c0,0,6.36,21.31-5.63,29.08c0,0-39.4-12.47-81.66,0c-12-7.77-5.63-29.08-5.63-29.08
		c-11.03,7.5-13.04,20.62-13.31,27.32c-33.93-31.98-54.5-65.55-66.86-96.07c-0.21-0.85-8.02-32.62-12.45-59.19l-3.08-35.85
		c0.04-20.67,1.69-49.27,9.47-67.26c4.44-10.27,17.89-17.32,17.89-17.32l16.95-52.01c0,0,28.35-30.03,76.13-29.17
		c0,0,17.82,0.86,26.73,7.72c0,0,62.36-26.6,101.24,36.89l11.34,38.61c0,0,12.96,9.72,17.82,22.02l2.21,84.21
		C-186.87,109.64-192.66,174.7-202.62,202.55z"/>
	<g>
		<path class="st2" d="M-195.02,18.55l2.93,68.08l4.64,1.08l-1.64-62.32c-2.01-5.09-5.42-9.74-8.71-13.45
			C-196.54,14.2-195.54,16.45-195.02,18.55z"/>
		<path class="st2" d="M-459.23,79.66c0,0,3.37-74.84,31.69-85.13l19.73-56.63c0,0,0.38-0.28,1.1-0.78
			c-10.17,6.42-15.64,12.21-15.64,12.21l-16.95,52.01c0,0-13.45,7.06-17.89,17.32c-6.14,14.2-8.46,35-9.19,53.3l0.52,10.75
			L-459.23,79.66z"/>
		<path class="st2" d="M-211.32-5.47c0,0,1.07,1.07,2.66,2.82l-9.57-32.58c-2.64-4.32-5.4-8.2-8.23-11.72L-211.32-5.47z"/>
	</g>
</g>
<path class="st3" d="M-255.68-19.48c-14.91,0-29.34,3.05-42.9,9.07l-13.73,6.09l48.28,54.66l3.3,3.72h37.56v32.5
	c0,5.09-1.14,9.96-3.39,14.47c-5.54,11.13-16.71,18.05-29.13,18.05c-6.02,0-11.72-1.58-16.47-4.56c-5.63-3.54-9.6-7.49-11.8-11.76
	c-1.59-3.09-3.1-6.32-3.42-9.04c-0.03-0.64-0.02-2.57-0.02-4.12c0.02-4.3,0.05-9.65-0.38-13.72c-0.19-1.78-0.43-3.6-0.71-5.42
	c-0.35-2.18-0.77-4.39-1.25-6.57c-1.75-7.89-4.3-15.34-7.57-22.15c-2.09-4.35-4.15-8.12-6.3-11.5c-3.6-5.71-7.77-11.09-12.37-16
	l-0.01-0.01c-0.18-0.2-0.47-0.54-0.75-0.87c-0.55-0.64-1.09-1.26-1.25-1.42l-0.11-0.11c-0.04-0.04-0.08-0.09-0.12-0.13l-3.37-3.42
	v0.01c-7.28-6.66-15.62-12.25-24.45-16.65c-14.76-7.38-30.67-11.11-47.29-11.11h-106.04V86.57c0,58.47,47.57,106.04,106.04,106.04
	c24.97,0,49.01-9.31,68.44-26.36c19.41,17.07,43.61,26.36,69.2,26.36c20.09,0,39.66-5.66,56.6-16.36
	c16.44-10.39,29.7-25.06,38.34-42.41c7.38-14.77,11.12-30.67,11.12-47.28V-19.48H-255.68z M-360.8,85.6l0,0.19l0.01,0.23
	c0,0.11,0,0.21,0,0.32l0,0.49l0,0.49c0,0.1,0,0.21,0,0.3l0,0.19l0,0.3c0.04,3.59,0.27,7.17,0.67,10.7
	c-3.9,5.1-10.59,11.51-14.21,14.13c-5.56,4.01-12.13,6.13-18.99,6.13c-17.92,0-32.51-14.58-32.51-32.5V54.06h32.51
	c5.11,0,9.97,1.14,14.47,3.39c7.91,3.93,13.74,10.65,16.43,18.96c0.68,2.09,1.55,5.05,1.63,7.68h-0.01c-0.01,0.32-0.01,0.64,0,0.96
	l0,0.39l0,0L-360.8,85.6z M-171.65,86.56c0,13.16-2.96,25.76-8.8,37.46c-6.85,13.76-17.36,25.39-30.39,33.62
	c-13.42,8.47-28.92,12.95-44.84,12.95c-22.96,0-44.57-9.54-60.86-26.87c-14.07-15.25-21.96-35.03-22.24-55.71c0-0.3,0-0.61,0-0.91
	l0-0.27l0-0.26c0-0.31,0-0.63,0-0.94c0.22-6.23-1.33-11.86-2.71-16.05c-4.52-13.94-14.31-25.25-27.53-31.83
	c-7.56-3.79-15.74-5.71-24.31-5.71h-54.52v54.53c0,30.06,24.46,54.52,54.52,54.52c11.51,0,22.52-3.56,31.87-10.3
	c1.39-1,3.02-2.32,4.77-3.86c4.21,10.42,9.88,19.18,14.37,25.21c-14.86,11.96-32.65,18.45-51.01,18.45
	c-46.33,0-84.02-37.69-84.02-84.03V2.54h84.02c13.17,0,25.77,2.96,37.46,8.8c8.07,4.02,15.41,9.29,21.82,15.66
	c0.17,0.19,0.4,0.46,0.64,0.74c0.41,0.48,0.87,1.01,1.41,1.55l-0.02,0.02c3.65,3.89,6.95,8.16,9.81,12.69
	c1.69,2.67,3.35,5.71,5.07,9.28c2.54,5.29,4.54,11.14,5.92,17.39c0.39,1.74,0.72,3.5,1,5.23c0.23,1.43,0.42,2.86,0.56,4.26
	c0.3,2.87,0.28,7.76,0.26,11.32c-0.02,3.39-0.02,5.09,0.13,6.46c0.67,6.33,3.16,11.86,5.75,16.89c4.03,7.83,10.65,14.67,19.67,20.33
	c8.27,5.19,18.01,7.93,28.17,7.93c20.83,0,39.54-11.59,48.84-30.25c3.78-7.58,5.69-15.76,5.69-24.28V32.04h-49.66l-24.11-27.29
	c6.26-1.47,12.69-2.21,19.24-2.21h84.04V86.56z"/>
<g>
	<g>
		<path class="st12" d="M-202.62,202.55c9.95-27.85,15.75-92.91,15.75-92.95l-2.21-84.21c-4.86-12.3-17.82-22.02-17.82-22.02
			l-11.34-38.61c-38.88-63.49-101.24-36.89-101.24-36.89c-8.91-6.86-26.73-7.72-26.73-7.72c-47.79-0.86-76.13,29.17-76.13,29.17
			l-16.95,52.01c0,0-13.45,7.06-17.89,17.32c-7.78,17.99-9.44,46.59-9.47,67.26l3.08,35.85c4.43,26.57,12.24,58.34,12.45,59.19
			c12.36,30.51,32.93,64.09,66.86,96.07c0.27-6.7,2.28-19.82,13.31-27.32c0,0-6.36,21.31,5.63,29.08c42.26-12.47,81.66,0,81.66,0
			c12-7.77,5.63-29.08,5.63-29.08c11.76,7.99,13.27,22.37,13.34,28.56c1.68-1.19,3.39-2.43,5.13-3.73
			C-228.45,248.06-211.65,222.77-202.62,202.55z"/>
		<path class="st12" d="M-184.14,115.58l-2.44,19.55c1.01-6.87,2.12-14.65,3.25-23.03C-183.61,113.32-183.89,114.5-184.14,115.58z"
			/>
	</g>
	<path class="st12" d="M-182.22,67.43c0,0,30.32-30.32,20.02,26.88c0,0-16.02,77.08-44.05,67.43l6.86-97.74"/>
	<path class="st12" d="M-466.78,67.43c0,0-30.32-30.32-20.02,26.88c0,0,16.02,77.08,44.05,67.43L-449.62,64"/>
	<path class="st12" d="M-289.4,70.32c0,0,21.45,56.73,85.8,9.34C-203.6,79.66-211.32-30.64-289.4,70.32z"/>
	<path class="st12" d="M-274.81,70.89c0,0,19.73-30.03,63.49,0C-211.32,70.89-243.92,98.35-274.81,70.89z"/>
	<path class="st12" d="M-302.27,70.32v46.05c0,0,12.87,18.02,30.03,0L-302.27,70.32z"/>
	<path class="st12" d="M-286.83,66.89c0,0,5.15,26.71,20.59,31.66C-266.23,98.54-286.83,70.6-286.83,66.89z"/>
	<path class="st12" d="M-351.18,71.27c0,0-21.45,56.72-85.8,9.34C-436.98,80.62-429.26-29.68-351.18,71.27z"/>
	<path class="st12" d="M-364.05,67.46c0,0-19.73-30.03-63.49,0C-427.54,67.46-394.93,94.92-364.05,67.46z"/>
	<path class="st12" d="M-336.16,72.03v46.05c0,0-12.87,18.02-30.03,0L-336.16,72.03z"/>
	<path class="st12" d="M-353.75,67.26c0,0-5.15,26.71-20.59,31.66C-374.34,98.92-353.75,70.98-353.75,67.26z"/>
	<path class="st12" d="M-364.87,220.42c0,0-3.79,13.28,27.19,23.4h31.62c0,0,23.48-9.84,23.48-23.08L-364.87,220.42z"/>
	<path class="st12" d="M-365.18,220.36c0,0,22.91,1.13,28.71-10.36c0,0,21.83,4.6,26.34,0c0,0,8.37,10.42,27.55,10.74
		L-365.18,220.36z"/>
	<path class="st12" d="M-459.23,79.66c0,0,47.13,46.14,55.71,121.65c0,0,1.72,27.46,12.01,58.34l5.72,16.02l-34.43-35l-22.42-32.4
		l-8.57-21.52l-8.18-20.54l-3.22-29.69l-1.64-20.1l-1.61-33.7L-459.23,79.66z"/>
	<path class="st12" d="M-192.08,86.63c0,0-46.68,44.32-55.26,119.82c0,0-1.72,27.46-12.01,58.34l-5.72,14.3l33.59-29.3l24.25-32.09
		l10.12-22.4l5.64-23.96l3.22-29.69l5.1-28.73V88.05L-192.08,86.63z"/>
	<polygon class="st12" points="-357.61,131.52 -351.18,112.93 -319.94,102.41 -289.4,105.78 -283.96,131.52 -323.36,139.43 	"/>
	<path class="st12" d="M-309.24,237.61c0,2.09-6.55,3.78-14.64,3.78c-8.08,0-14.64-1.69-14.64-3.78c0-2.08,6.55-3.78,14.64-3.78
		C-315.8,233.83-309.24,235.52-309.24,237.61z"/>
	<path class="st12" d="M-399.01,237.73c0,0-41.29-67.62-45.26-104.2l-1.92-27.28V95.08l17.59,15.91l19.3,34.47L-399.01,237.73z"/>
	<path class="st12" d="M-251.71,243.82c0,0,39.57-67.62,43.55-104.2l1.92-27.28v-8.9l-17.59,13.65l-17.59,34.47L-251.71,243.82z"/>
	<ellipse class="st12" cx="-243.07" cy="3.26" rx="14.64" ry="10.3"/>
	<path class="st12" d="M-278.25,28.85c0,0,24.88-51.78,66.92-8.02l16.3,23.46c0,0-51.71-53.2-72.07-9.44L-278.25,28.85z"/>
	<ellipse class="st12" cx="-357.61" cy="23.78" rx="14.64" ry="10.3"/>
	<path class="st12" d="M-357.61,28.85c0,0-41.18-38.61-83.23,5.15v10.3c0,0,41.18-25.74,72.07-9.44L-357.61,28.85z"/>
	<path class="st12" d="M-350.44,157.43c0,0,30.5,37.01,56.3,0"/>
	<g>
		<path class="st12" d="M-359.09,122.1c0,0-32.6,39.41,14.59,36.44c0,0,26.6,23.47,48.05-0.48"/>
		<path class="st12" d="M-282.35,122.1c0,0,32.6,39.41-14.59,36.44c0,0-24.88,23.47-46.33-0.48"/>
	</g>
	<path class="st12" d="M-343.27,124.37c0,0-10.48,16.72,11.83,24.52c0,0,17.73,5.3,27.45-2.21c0,0,15.59-3.43,7.53-22.31
		l-23.48-70.26L-343.27,124.37z"/>
	<path class="st12" d="M-343.27,156.12c0,1.12-3.21,2.03-7.17,2.03c-3.96,0-7.17-0.91-7.17-2.03c0-1.12,3.21-2.03,7.17-2.03
		C-346.48,154.09-343.27,155-343.27,156.12z"/>
	<path class="st12" d="M-282.23,156.12c0,1.12-3.21,2.03-7.17,2.03c-3.96,0-7.17-0.91-7.17-2.03c0-1.12,3.21-2.03,7.17-2.03
		C-285.44,154.09-282.23,155-282.23,156.12z"/>
	<ellipse class="st12" cx="-320.34" cy="138.1" rx="14.64" ry="10.3"/>
	<path class="st12" d="M-378.68,293.69"/>
	<path class="st12" d="M-168.02,6.81c0,0-41.31-126.99-121.49-141.57c0,0-115.82-31.75-179.81,103.82c0,0-11.34,42.9-12.15,92.67
		l12.71,40.44c0.28,5.63,0.8,11.91,1.7,18.75l0,0.01l0,0.03c0.44,3.34,0.97,6.82,1.61,10.41l6.35,41.03
		c10.32,47.17,74.87,108.83,74.87,108.83c0,0,55.24,67.29,119.44,0c0,0,0.08-0.87,0.08-2.34c5.19-3.01,62.09-37.38,72.96-102.48
		l7.59-60.83C-178.64,92.11-165.44,32.07-168.02,6.81z M-202.62,202.55c-9.52,21.3-27.64,48.24-62.08,76.23
		c0-5.85-1.23-20.86-13.34-29.09c0,0,6.36,21.31-5.63,29.08c0,0-39.4-12.47-81.66,0c-12-7.77-5.63-29.08-5.63-29.08
		c-11.03,7.5-13.04,20.62-13.31,27.32c-33.93-31.98-54.5-65.55-66.86-96.07c-0.21-0.85-8.02-32.62-12.45-59.19l-3.08-35.85
		c0.04-20.67,1.69-49.27,9.47-67.26c4.44-10.27,17.89-17.32,17.89-17.32l16.95-52.01c0,0,28.35-30.03,76.13-29.17
		c0,0,17.82,0.86,26.73,7.72c0,0,62.36-26.6,101.24,36.89l11.34,38.61c0,0,12.96,9.72,17.82,22.02l2.21,84.21
		C-186.87,109.64-192.66,174.7-202.62,202.55z"/>
	<g>
		<path class="st12" d="M-195.02,18.55l2.93,68.08l4.64,1.08l-1.64-62.32c-2.01-5.09-5.42-9.74-8.71-13.45
			C-196.54,14.2-195.54,16.45-195.02,18.55z"/>
		<path class="st12" d="M-459.23,79.66c0,0,3.37-74.84,31.69-85.13l19.73-56.63c0,0,0.38-0.28,1.1-0.78
			c-10.17,6.42-15.64,12.21-15.64,12.21l-16.95,52.01c0,0-13.45,7.06-17.89,17.32c-6.14,14.2-8.46,35-9.19,53.3l0.52,10.75
			L-459.23,79.66z"/>
		<path class="st12" d="M-211.32-5.47c0,0,1.07,1.07,2.66,2.82l-9.57-32.58c-2.64-4.32-5.4-8.2-8.23-11.72L-211.32-5.47z"/>
	</g>
</g>
<g>
	<g>
		<g>
			<g>
				<path class="st0" d="M111.8,407.82h-0.01c-0.05-0.22-0.1-0.45-0.16-0.69C111.69,407.36,111.75,407.59,111.8,407.82z"/>
				<path class="st0" d="M203.7,321.53v-1.8c0.09-0.14,0.17-0.29,0.25-0.44c-0.09,0.09-0.17,0.18-0.25,0.28v-1.1
					c-0.01-0.31-0.01-0.63,0-0.95h0.01c-0.04-1.18-0.23-2.43-0.5-3.64c-0.33-1.48-0.76-2.89-1.13-4.04
					c-0.86-2.63-2.02-5.1-3.47-7.38c-3.13-4.91-7.56-8.89-12.96-11.58c-3.92-1.96-8.1-3.07-12.49-3.33c-0.03,0-0.06-0.01-0.09-0.01
					c-0.63-0.03-1.26-0.05-1.9-0.05h-32.5v12.25c-0.56,0.37-1.13,0.76-1.71,1.15c0,0,0.6,0.5,1.71,1.31V320
					c0,0.51,0.01,1.02,0.03,1.52c0.8,17.22,15.06,30.98,32.47,30.98c6.86,0,13.42-2.12,18.99-6.13c3.62-2.62,10.3-9.03,14.21-14.13
					C203.96,328.7,203.74,325.13,203.7,321.53z M210.63,301.27c-0.01,0.06-0.03,0.13-0.05,0.2c0.03-0.06,0.05-0.12,0.06-0.18
					C210.64,301.28,210.63,301.27,210.63,301.27z M365.42,409.69c-7.57,4.78-15.67,8.56-24.1,11.27
					c-7.14,2.29-14.52,3.82-22.02,4.56c-0.25,0.03-0.49,0.05-0.74,0.07c-3.23,0.3-6.48,0.45-9.74,0.45
					c-21.71,0-42.43-6.68-60.06-19.14c-2.08-1.47-4.12-3.02-6.11-4.65c0.56,0.01,1.11,0,1.67-0.02c-0.63-0.03-1.27-0.09-1.89-0.16
					c-0.95-0.78-1.89-1.57-2.82-2.39c-0.59,0.52-1.19,1.04-1.79,1.54c-0.16,0.14-0.32,0.27-0.48,0.4c-1.39,1.16-2.81,2.28-4.24,3.35
					c-18.17,13.69-39.67,21.07-61.93,21.07c-3.63,0-7.22-0.18-10.77-0.54c-0.23-0.03-0.46-0.05-0.69-0.08
					c-7.29-0.78-14.36-2.31-21.14-4.51c-9.59-3.1-18.59-7.54-26.77-13.09c0.11,0.47,0.22,0.92,0.31,1.34
					c0.15,0.62,0.29,1.2,0.41,1.72c0.02,0.05,0.03,0.11,0.04,0.16c0.09,0.37,0.17,0.7,0.24,1.01c0.04,0.15,0.07,0.3,0.11,0.44
					c0.05,0.2,0.09,0.38,0.13,0.55c0.11,0.45,0.19,0.79,0.25,1.02c0.02,0.1,0.04,0.17,0.05,0.23c0.02,0.04,0.03,0.07,0.03,0.09
					c0.33,0.82,0.67,1.64,1.02,2.47c0.34,0.82,0.69,1.65,1.05,2.48c0.35,0.83,0.72,1.66,1.09,2.49c0.24,0.57,0.5,1.13,0.76,1.69
					c0.24,0.56,0.5,1.12,0.76,1.68c0.25,0.55,0.51,1.1,0.77,1.66c0.39,0.84,0.79,1.68,1.2,2.52c2.48,5.15,5.21,10.37,8.21,15.62
					c0.9,1.58,1.83,3.17,2.78,4.77c0.55,0.91,1.11,1.83,1.67,2.75c0.33,0.54,0.67,1.08,1.01,1.63c1.43,2.28,2.91,4.57,4.45,6.87
					c0.38,0.57,0.77,1.15,1.16,1.72c0.12,0.17,0.24,0.35,0.36,0.53c0.52,0.77,1.05,1.53,1.59,2.3c1.22,1.74,2.47,3.49,3.76,5.24
					c1.26,1.72,2.55,3.43,3.88,5.15c0.04,0.05,0.08,0.11,0.13,0.18c0.54,0.7,1.08,1.39,1.64,2.09c0.56,0.72,1.14,1.45,1.73,2.18
					c0.55,0.69,1.11,1.38,1.68,2.07c0.39,0.48,0.79,0.96,1.2,1.45c1.45,1.75,2.94,3.49,4.46,5.24c1.52,1.74,3.08,3.49,4.67,5.23
					c0.79,0.87,1.59,1.74,2.42,2.61c0.02,0.03,0.05,0.05,0.07,0.08c0.77,0.82,1.54,1.64,2.32,2.45c0.07,0.08,0.15,0.15,0.23,0.23
					c0.75,0.8,1.53,1.59,2.31,2.39c1.74,1.77,3.52,3.54,5.34,5.3c0.03,0.03,0.07,0.07,0.11,0.11l0.09,0.09
					c0.45,0.44,0.92,0.88,1.38,1.31c0.52,0.5,1.04,1,1.56,1.49c0.27-6.7,2.28-19.82,13.31-27.32c0,0-6.37,21.3,5.63,29.07
					c42.26-12.46,81.66,0,81.66,0c12-7.77,5.63-29.07,5.63-29.07c0.37,0.25,0.72,0.51,1.07,0.77c0.26,0.19,0.51,0.39,0.75,0.59
					c0.16,0.12,0.31,0.25,0.47,0.39c0.25,0.21,0.51,0.43,0.75,0.66c0.25,0.22,0.5,0.45,0.73,0.69c0.01,0.01,0.02,0.02,0.03,0.03
					c0.26,0.25,0.51,0.51,0.75,0.77c0.18,0.19,0.35,0.37,0.51,0.56c0.15,0.16,0.28,0.32,0.42,0.48c0.39,0.46,0.76,0.93,1.11,1.4
					c0.2,0.28,0.4,0.56,0.6,0.84c0.01,0.03,0.03,0.05,0.05,0.08c0.21,0.3,0.41,0.61,0.6,0.92c0.02,0.02,0.03,0.05,0.04,0.08
					c0.21,0.31,0.4,0.63,0.57,0.95c0.16,0.26,0.31,0.53,0.45,0.8c0.17,0.3,0.32,0.6,0.47,0.91c0.1,0.21,0.2,0.41,0.3,0.62
					c0.01,0.03,0.02,0.05,0.03,0.08c0.12,0.23,0.22,0.47,0.32,0.7c0.16,0.35,0.3,0.69,0.44,1.04c0.11,0.28,0.22,0.56,0.32,0.83
					c0.09,0.25,0.18,0.51,0.27,0.76c0.11,0.31,0.21,0.62,0.3,0.92c0.19,0.59,0.36,1.19,0.52,1.77c0.08,0.29,0.15,0.58,0.22,0.87
					c0.07,0.29,0.14,0.58,0.2,0.86c0.06,0.27,0.12,0.54,0.17,0.8c0.04,0.21,0.09,0.42,0.12,0.63c0.06,0.31,0.11,0.61,0.16,0.91
					c0.06,0.32,0.11,0.64,0.15,0.95c0.07,0.49,0.13,0.97,0.18,1.44c0.01,0.07,0.02,0.14,0.02,0.2c0.03,0.28,0.05,0.55,0.08,0.81
					c0.03,0.29,0.05,0.57,0.06,0.84c0.01,0.06,0.01,0.11,0.01,0.17c0.04,0.38,0.05,0.74,0.07,1.09c0.02,0.45,0.03,0.86,0.03,1.24
					v0.01c0.01,0.03,0.01,0.06,0,0.09c1.13-0.8,2.28-1.63,3.44-2.49l0.08-0.06c0.53-0.38,1.07-0.78,1.61-1.18
					c0.97-0.83,1.93-1.65,2.88-2.48c0.47-0.41,0.94-0.81,1.4-1.23c2.16-1.91,4.23-3.81,6.24-5.69c0.05-0.04,0.11-0.09,0.16-0.14
					c0.01-0.02,0.03-0.03,0.04-0.04c0.04-0.03,0.07-0.07,0.11-0.1c0.49-0.48,0.99-0.93,1.47-1.4c0.42-0.41,0.84-0.82,1.26-1.22
					c0.53-0.5,1.05-1.01,1.56-1.52c1.54-1.51,3.04-3.02,4.49-4.54c0.38-0.4,0.77-0.8,1.15-1.2c0.38-0.41,0.76-0.81,1.13-1.2
					c0.38-0.4,0.75-0.8,1.12-1.2c0.73-0.8,1.46-1.59,2.17-2.38c0.71-0.8,1.41-1.59,2.1-2.37c0.35-0.4,0.69-0.79,1.03-1.18
					c1.01-1.18,2-2.34,2.97-3.51c0-0.01,0-0.01,0-0.01c0.64-0.77,1.27-1.55,1.89-2.32c0.32-0.39,0.62-0.77,0.92-1.15
					c2.14-2.69,4.14-5.35,6-7.96c0.42-0.59,0.83-1.18,1.24-1.76c0.15-0.21,0.3-0.43,0.45-0.64c0.47-0.69,0.94-1.37,1.39-2.05
					c0.49-0.73,0.97-1.46,1.45-2.19c0.47-0.72,0.93-1.45,1.39-2.17c0.4-0.64,0.8-1.28,1.19-1.91c0.35-0.57,0.7-1.14,1.03-1.7
					c0.33-0.55,0.65-1.09,0.96-1.63c1.36-2.33,2.61-4.61,3.77-6.84c0.31-0.58,0.61-1.16,0.9-1.74c1.12-2.22,2.15-4.39,3.09-6.5
					c1.01-2.82,1.97-6.02,2.89-9.49c0.16-0.58,0.31-1.16,0.46-1.76c0.77-3.04,1.51-6.27,2.22-9.62c0.25-1.16,0.49-2.34,0.73-3.53
					c0.28-1.41,0.55-2.83,0.82-4.26C367.83,408.13,366.63,408.92,365.42,409.69z M377.06,321.15l-0.01-0.35l-0.55-21.1l-1.08-40.87
					c-0.22-0.57-0.47-1.13-0.72-1.68c-0.08-0.16-0.16-0.32-0.24-0.49c-0.2-0.44-0.42-0.87-0.65-1.29c-0.21-0.39-0.42-0.78-0.64-1.17
					c-0.67-1.16-1.39-2.3-2.15-3.38c-0.05-0.08-0.11-0.16-0.16-0.23c-0.35-0.5-0.71-0.99-1.07-1.47c-0.31-0.4-0.61-0.79-0.92-1.18
					c-0.22-0.27-0.44-0.54-0.66-0.81c-0.16-0.2-0.33-0.4-0.5-0.59c-0.33-0.4-0.66-0.78-1-1.16c-4.16-4.68-8.14-7.83-8.95-8.46
					c-0.04-0.03-0.08-0.05-0.1-0.07c-0.03-0.03-0.05-0.04-0.05-0.04l-0.25-0.84h-48.54c-0.67,0-1.33,0.01-1.99,0.02
					c-5.86,0.14-11.63,0.87-17.25,2.19l7.88,8.91l8.36,9.48l7.87,8.9h41.52c3.13,2.32,5.9,4.6,8.14,6.56v47.96
					c0,3.99-0.42,7.9-1.26,11.71c-0.84,3.89-2.13,7.67-3.83,11.32c-0.2,0.42-0.4,0.84-0.61,1.26c-4.05,8.12-9.87,14.9-16.88,19.97
					c-3.13,2.26-6.49,4.18-10.03,5.73c-6.77,2.96-14.19,4.55-21.92,4.55c-5.95,0-11.75-0.94-17.2-2.76
					c-3.86-1.29-7.54-3.02-10.98-5.18c-0.66-0.41-1.31-0.83-1.94-1.27c-2.06-1.38-3.98-2.83-5.77-4.35c-2.1-1.77-4-3.64-5.7-5.6
					l-0.36-1.07c-0.56-0.4-1.07-0.82-1.54-1.22c-0.01-0.01-0.02-0.02-0.03-0.03c-1.12-1.46-2.16-2.97-3.07-4.53
					c-0.45-0.74-0.87-1.5-1.26-2.26c-1.46-2.84-2.89-5.84-3.97-9.05c-0.85-2.47-1.48-5.08-1.78-7.84c-0.14-1.36-0.14-3.06-0.12-6.45
					c0-1.17,0.01-2.49,0-3.83v-0.01c0-2.73-0.06-5.56-0.26-7.49c-0.15-1.39-0.34-2.82-0.56-4.25c-0.28-1.73-0.62-3.5-1-5.23
					c-1.39-6.26-3.39-12.1-5.93-17.39c-1.72-3.58-3.37-6.62-5.06-9.29c-2.87-4.53-6.17-8.8-9.82-12.69l0.03-0.02
					c-0.54-0.54-1-1.07-1.41-1.55c-0.24-0.28-0.48-0.55-0.64-0.74c-6.4-6.37-13.74-11.64-21.82-15.66
					c-11.68-5.85-24.28-8.8-37.46-8.8h-48.03c-0.8,0.49-1.8,1.13-2.91,1.91c-0.19,0.13-0.37,0.26-0.56,0.4
					c-0.96,0.69-1.99,1.47-3.03,2.34c-0.32,0.26-0.64,0.53-0.95,0.81c-0.23,0.19-0.45,0.39-0.67,0.59
					c-0.28,0.25-0.57,0.51-0.84,0.78c-0.25,0.24-0.5,0.48-0.74,0.72c-0.31,0.31-0.62,0.63-0.93,0.96c-0.66,0.7-1.29,1.44-1.89,2.2
					c-0.27,0.34-0.53,0.69-0.78,1.04c-0.23,0.31-0.45,0.64-0.66,0.96c-0.1,0.14-0.19,0.28-0.27,0.42c-0.2,0.31-0.39,0.63-0.57,0.95
					c-0.11,0.2-0.22,0.4-0.32,0.6c-0.11,0.19-0.2,0.38-0.3,0.57c-0.14,0.28-0.27,0.58-0.4,0.87c-0.32,0.74-0.63,1.49-0.92,2.26
					c-0.15,0.38-0.3,0.77-0.44,1.17c-0.11,0.31-0.22,0.61-0.33,0.92s-0.22,0.62-0.32,0.93c-0.1,0.3-0.2,0.6-0.3,0.9
					c-0.11,0.33-0.22,0.67-0.32,1c-0.2,0.64-0.39,1.29-0.58,1.95c-0.1,0.33-0.19,0.66-0.28,0.99c-0.09,0.33-0.18,0.66-0.27,1
					c-0.09,0.33-0.18,0.66-0.26,1c-0.04,0.15-0.08,0.31-0.11,0.46c-0.05,0.19-0.1,0.37-0.14,0.56c-0.16,0.6-0.3,1.22-0.44,1.83
					c-0.12,0.54-0.24,1.09-0.36,1.64c-0.2,0.93-0.39,1.86-0.57,2.8c-0.13,0.71-0.27,1.43-0.4,2.15c-0.15,0.87-0.3,1.75-0.44,2.63
					c-0.09,0.56-0.18,1.12-0.26,1.68c-0.12,0.75-0.23,1.51-0.33,2.28c-0.06,0.39-0.11,0.78-0.16,1.18c-0.1,0.7-0.18,1.4-0.27,2.11
					c-0.05,0.39-0.1,0.78-0.14,1.18c-0.09,0.75-0.17,1.5-0.25,2.26c-0.07,0.62-0.13,1.24-0.19,1.86c-0.05,0.5-0.1,1-0.14,1.5
					c-0.04,0.47-0.09,0.94-0.13,1.42c-0.05,0.64-0.11,1.28-0.15,1.91c-0.05,0.53-0.09,1.06-0.12,1.59
					c-0.02,0.12-0.02,0.24-0.03,0.36c-0.07,0.95-0.13,1.88-0.19,2.82c-0.04,0.67-0.08,1.34-0.12,2.01c-0.01,0.1-0.01,0.2-0.02,0.3
					c-0.02,0.32-0.03,0.64-0.05,0.96c0,0.08,0,0.16-0.01,0.23c-0.02,0.58-0.05,1.16-0.08,1.74c-0.01,0.18-0.02,0.37-0.03,0.55
					c-0.03,0.76-0.06,1.51-0.09,2.26c0,0.18-0.01,0.36-0.02,0.53c-0.04,1.32-0.08,2.63-0.11,3.91c-0.07,2.92-0.11,5.74-0.11,8.43
					l2.17,25.23v0.02l0.91,10.6c0.8,4.79,1.71,9.75,2.67,14.67c4.97,6.71,10.91,12.66,17.61,17.64c1.6,1.18,3.24,2.31,4.93,3.38
					c8.59,5.49,18.24,9.45,28.57,11.51c1.05,0.21,2.12,0.4,3.19,0.57c4.33,0.69,8.76,1.05,13.28,1.05
					c14.69,0,29.01-4.15,41.76-11.95h0.02c0.72,0.04,1.46,0.05,2.23,0.05c-0.19-0.2-0.35-0.38-0.49-0.54
					c-0.14-0.15-0.25-0.28-0.34-0.38c0.18-0.11,0.36-0.22,0.53-0.34c1.38-0.88,2.73-1.82,4.06-2.8c1.1-0.79,2.18-1.62,3.24-2.48
					c-3.7-4.97-8.2-11.79-12.02-19.87v-0.01c-0.69-1.45-1.36-2.93-1.99-4.46c-0.12-0.29-0.24-0.58-0.36-0.87
					c-1.75,1.53-3.38,2.85-4.77,3.85c-1.73,1.25-3.51,2.38-5.35,3.41h-0.01c-8.09,4.52-17.13,6.89-26.51,6.89
					c-7.33,0-14.32-1.45-20.71-4.09c-3.48-1.43-6.78-3.22-9.86-5.31c-10.89-7.4-18.98-18.64-22.29-31.76v-4.85
					c-0.41-0.55-0.82-1.08-1.22-1.6v-0.01c-0.29-2.26-0.44-4.56-0.44-6.9v-54.53h54.52c0.16,0,0.32,0,0.48,0.01h0.01
					c8.4,0.06,16.39,1.98,23.82,5.7c13.22,6.57,23,17.88,27.53,31.83c0.71,2.17,1.47,4.72,2,7.55v0.01
					c0.51,2.63,0.82,5.49,0.71,8.49V320l-0.01,0.26l0.01,0.27v0.91c0.08,5.74,0.74,11.41,1.96,16.93l-1.18,3.55l1.84-0.62l0.05-0.01
					c1.91,7.43,4.85,14.56,8.73,21.2c1.99,3.42,4.23,6.7,6.71,9.83c1.05,1.33,2.14,2.62,3.28,3.89c0.28,0.32,0.56,0.63,0.85,0.94
					c1.09,1.16,2.2,2.28,3.34,3.37c-0.48,0.19-0.97,0.36-1.48,0.51l3.91,2.24l0.59,0.34l0.29,0.17l0.86,0.5h0.01
					c0.01,0,0.01,0,0.02,0.01c2.84,2.4,5.8,4.6,8.87,6.57c0.86,0.56,1.72,1.1,2.6,1.62c0.03,0.02,0.07,0.04,0.1,0.06
					c0.47,0.28,0.95,0.56,1.43,0.83c12.28,6.97,26.04,10.66,40.32,10.66c4.12,0,8.21-0.3,12.24-0.89c1.3-0.19,2.59-0.41,3.87-0.66
					c9.6-1.87,18.82-5.41,27.26-10.51h0.01c0.49-0.29,0.97-0.59,1.46-0.9c1.76-1.11,3.48-2.29,5.14-3.53
					c5.82-4.3,11.04-9.32,15.55-14.94c0.03-0.25,0.06-0.5,0.09-0.74c0.08-0.58,0.15-1.16,0.22-1.73c0.04-0.29,0.08-0.58,0.11-0.86
					c0.07-0.57,0.14-1.14,0.21-1.69c0.07-0.56,0.13-1.11,0.2-1.65c0.06-0.54,0.13-1.08,0.19-1.61c0.16-1.33,0.31-2.62,0.45-3.86
					c0.05-0.44,0.1-0.87,0.15-1.3c0.2-1.74,0.38-3.37,0.54-4.88c0.04-0.42,0.09-0.83,0.13-1.23c0.04-0.4,0.08-0.79,0.12-1.17
					c0.02-0.19,0.04-0.38,0.06-0.56c0.05-0.43,0.09-0.84,0.13-1.23c0.03-0.29,0.06-0.58,0.09-0.85c0.15-1.47,0.27-2.71,0.36-3.68
					c0.03-0.28,0.05-0.53,0.08-0.76c0.02-0.23,0.04-0.43,0.05-0.61c0.02-0.22,0.04-0.4,0.06-0.56c0.01-0.12,0.02-0.22,0.02-0.3
					c0.01-0.05,0.01-0.1,0.02-0.14c0.01-0.1,0.01-0.15,0.01-0.15L377.06,321.15z M308.82,213.95h42.08l-4.63-15.75
					c-0.33-0.54-0.66-1.07-1-1.6c-0.66-1.05-1.34-2.08-2.02-3.08c-0.35-0.5-0.69-1-1.03-1.49c-0.34-0.47-0.67-0.94-1-1.4
					c-0.02-0.01-0.02-0.02-0.03-0.03c0-0.01,0-0.01,0-0.02c-0.07-0.1-0.15-0.2-0.23-0.3c-0.08-0.11-0.16-0.21-0.23-0.31
					c-0.16-0.21-0.31-0.42-0.46-0.62c-0.09-0.11-0.17-0.22-0.25-0.33c-0.23-0.33-0.48-0.65-0.73-0.97
					c-0.33-0.42-0.66-0.85-0.99-1.26c-0.09-0.11-0.17-0.22-0.26-0.33c-0.25-0.31-0.5-0.6-0.74-0.9c-0.33-0.41-0.67-0.81-1.01-1.2
					c-2.39-2.82-4.84-5.37-7.33-7.69c-0.63-0.59-1.25-1.16-1.89-1.71c-1.08-0.94-2.16-1.85-3.25-2.7c-0.35-0.28-0.71-0.56-1.06-0.83
					c-0.72-0.55-1.43-1.07-2.14-1.58c-0.71-0.5-1.42-0.99-2.13-1.47c-1.49-0.98-2.99-1.9-4.48-2.75c-0.6-0.34-1.21-0.67-1.81-0.99
					c-1.56-0.83-3.12-1.6-4.68-2.28c-0.65-0.3-1.3-0.57-1.94-0.84c-1.83-0.76-3.66-1.42-5.47-2c-0.35-0.11-0.69-0.22-1.03-0.33
					c-1.08-0.33-2.16-0.64-3.23-0.91c-0.61-0.16-1.21-0.3-1.81-0.44c-1.26-0.3-2.5-0.56-3.74-0.77c-0.93-0.18-1.86-0.33-2.78-0.46
					c-0.85-0.13-1.71-0.23-2.55-0.32c-0.68-0.08-1.34-0.15-2.01-0.2c-0.16-0.02-0.32-0.03-0.48-0.04c-0.54-0.05-1.09-0.08-1.62-0.12
					c-0.11-0.01-0.22-0.01-0.33-0.02c-0.47-0.02-0.94-0.04-1.4-0.06s-0.91-0.04-1.36-0.05c-18.81-0.44-32.75,5.5-32.75,5.5
					c-8.91-6.86-26.73-7.72-26.73-7.72c-0.67-0.01-1.34-0.02-2.01-0.02c-0.8,0-1.6,0.01-2.39,0.03c-0.75,0.01-1.49,0.04-2.22,0.07
					c-0.67,0.03-1.34,0.06-2,0.1c-0.44,0.02-0.87,0.05-1.29,0.09c-0.31,0.02-0.61,0.04-0.91,0.07c-0.48,0.03-0.96,0.07-1.44,0.12
					c-0.57,0.05-1.14,0.11-1.7,0.17c-0.53,0.06-1.05,0.12-1.57,0.19c-0.2,0.02-0.4,0.05-0.59,0.07c-0.67,0.09-1.32,0.18-1.98,0.28
					c-0.72,0.1-1.44,0.22-2.15,0.34c-1.43,0.24-2.83,0.51-4.21,0.8c-0.69,0.14-1.37,0.3-2.05,0.45c-0.67,0.16-1.34,0.32-2.01,0.49
					c-0.62,0.15-1.23,0.31-1.84,0.48c-0.09,0.02-0.19,0.05-0.28,0.07c-0.6,0.17-1.2,0.33-1.78,0.51c-1.23,0.35-2.44,0.73-3.62,1.12
					c-0.19,0.06-0.38,0.12-0.56,0.18c-1.65,0.55-3.25,1.13-4.8,1.74c-0.62,0.24-1.22,0.48-1.83,0.73c-0.53,0.22-1.06,0.44-1.58,0.66
					c-0.62,0.27-1.24,0.54-1.85,0.81c-0.49,0.22-0.96,0.44-1.44,0.66c-0.52,0.24-1.03,0.48-1.54,0.73c-0.51,0.25-1.01,0.49-1.5,0.74
					c-0.49,0.25-0.98,0.5-1.46,0.75c-0.07,0.04-0.14,0.07-0.2,0.1c-0.86,0.46-1.7,0.91-2.52,1.36c-0.03,0.02-0.05,0.04-0.08,0.05
					c-0.79,0.44-1.56,0.88-2.3,1.32c-0.11,0.07-0.22,0.14-0.33,0.2c-0.85,0.51-1.67,1.01-2.46,1.51c-0.32,0.2-0.63,0.4-0.94,0.6
					s-0.61,0.4-0.91,0.59c-0.24,0.15-0.48,0.31-0.72,0.47c-0.05,0.04-0.11,0.08-0.16,0.12h-0.01c-0.58,0.4-1.14,0.78-1.68,1.16
					c-0.01,0.01-0.03,0.02-0.04,0.02c-0.53,0.38-1.04,0.75-1.53,1.11c-0.01,0-0.01,0.01-0.02,0.01c-0.5,0.37-0.98,0.72-1.44,1.07
					c-0.35,0.26-0.69,0.53-1.02,0.78c-0.04,0.03-0.07,0.06-0.11,0.08c-0.16,0.12-0.31,0.25-0.46,0.37c-0.13,0.1-0.25,0.2-0.38,0.3
					c-0.16,0.14-0.33,0.27-0.49,0.4c-0.15,0.12-0.3,0.24-0.44,0.36c-0.09,0.07-0.17,0.14-0.25,0.2c-0.21,0.17-0.41,0.34-0.61,0.5
					c-0.14,0.12-0.28,0.24-0.42,0.37c-0.42,0.36-0.81,0.69-1.16,1c-0.31,0.27-0.6,0.53-0.86,0.77l-0.08,0.08
					c-0.23,0.21-0.44,0.41-0.63,0.59c-0.38,0.35-0.67,0.64-0.88,0.85l-0.24,0.24c-0.04,0.03-0.06,0.06-0.08,0.08
					c-0.03,0.02-0.05,0.04-0.06,0.06c-0.01,0.01-0.02,0.02-0.02,0.02l-10.17,31.2h39.18c16.62,0,32.53,3.74,47.29,11.11
					c8.84,4.41,17.18,10,24.46,16.66l3.37,3.4c0.04,0.05,0.07,0.09,0.12,0.13l0.11,0.12c0.15,0.16,0.69,0.79,1.24,1.42
					c0.29,0.33,0.58,0.67,0.76,0.87l0.01,0.01c4.6,4.91,8.77,10.29,12.37,16c2.14,3.39,4.2,7.16,6.29,11.51
					c3.28,6.8,5.82,14.25,7.58,22.14c0.4,1.82,0.76,3.66,1.06,5.48v0.01c-0.24,0.31-0.49,0.62-0.73,0.94c0,0,0.42,1.12,1.33,2.91
					v0.01c0.11,0.89,0.21,1.76,0.3,2.63c0.43,4.07,0.4,9.42,0.38,13.72c0,1.23-0.01,2.68,0.01,3.56l12.93,19.83
					c0.73,0.52,1.5,1.04,2.3,1.54c4.75,2.98,10.45,4.56,16.47,4.56c12.42,0,23.58-6.92,29.13-18.05c1.45-2.92,2.44-5.98,2.95-9.16
					c0.29-1.74,0.43-3.51,0.43-5.31v-32.5h-37.56l-3.29-3.72l-3.89-4.4l-44.4-50.26l13.73-6.09
					C279.47,217,293.91,213.95,308.82,213.95z"/>
			</g>
			<g>
				<path class="st0" d="M381.16,345.58c-0.37,2.78-0.75,5.48-1.11,8.11l-0.01,0.04v0.01c-0.68,4.92-1.35,9.56-1.98,13.87
					c-0.05,0.32-0.09,0.63-0.14,0.94l0.11-0.9v-0.01l0.01-0.01l0.78-6.32l0.3-2.39l0.01-0.04v-0.03l0.01-0.04l1.22-9.8
					c0.06-0.27,0.13-0.55,0.19-0.83c0.13-0.53,0.26-1.09,0.39-1.65C381.01,346.22,381.09,345.9,381.16,345.58z"/>
			</g>
		</g>
		<g>
			<path class="st1" d="M392.85,293.63v26.36c0,13.16-2.96,25.76-8.8,37.46c-1.76,3.53-3.76,6.93-5.99,10.16
				c-0.05,0.32-0.09,0.63-0.14,0.94l0.11-0.9c-0.2,0.29-0.4,0.59-0.61,0.88c0,0,0,0-0.01,0.01c-0.98,1.38-2,2.74-3.06,4.06
				c-4.51,5.62-9.73,10.64-15.55,14.94l3.97-56.69v-0.01l2.35-33.41l6.38,1.27l5,1l5.78,1.16c0,0,4.46-4.46,9.37-6.73
				C392.05,293.95,392.45,293.78,392.85,293.63z"/>
		</g>
		<g>
			<path class="st1" d="M121.2,387.51c-6.7-4.98-12.64-10.93-17.61-17.64c-0.66-0.89-1.3-1.79-1.92-2.71
				c-1.06-1.56-2.07-3.15-3.03-4.79c-7.3-12.44-11.49-26.92-11.49-42.37v-26.37c5.37,2.03,10.57,7.23,10.57,7.23l0.62-0.12
				l0.01-0.01l8.12-1.62l8.41-1.68l2.05,29.27L121.2,387.51z"/>
		</g>
		<g class="st13">
			<path class="st5" d="M341.33,287.49v32.5c0,1.8-0.14,3.57-0.43,5.31c-21.12,10.02-36.27,7.36-46.67,1.1h-0.01
				c-4.28-2.58-7.76-5.77-10.52-8.93l-0.01-0.01c-3.57-4.11-5.93-8.17-7.26-10.79v-0.01c-0.91-1.79-1.33-2.91-1.33-2.91
				c0.24-0.32,0.49-0.63,0.73-0.94v-0.01c0.63-0.79,1.24-1.57,1.85-2.33c0-0.01,0.01-0.02,0.01-0.03
				c6.85-8.61,13.13-15.56,18.9-21.07l3.89,4.4l3.29,3.72H341.33z"/>
			<path class="st5" d="M342.22,265.47h-27.33C326.77,259.12,335.63,260.41,342.22,265.47z"/>
		</g>
		<g>
			<path class="st3" d="M341.33,297.3v14.22c-12.26,5.65-32.29,10.01-51.64-7.2C289.69,304.32,305.84,279.74,341.33,297.3z"/>
		</g>
		<g>
			<path class="st4" d="M265.3,353.05c-1.98-1.72-3.07-3.25-3.07-3.25v-1.28C263.14,350.08,264.18,351.59,265.3,353.05z"/>
		</g>
		<g>
			<path class="st5" d="M277.67,300.32c0,0,5.15,26.71,20.59,31.66C298.27,331.98,277.67,304.03,277.67,300.32z"/>
		</g>
		<g class="st13">
			<path class="st5" d="M171.65,265.48c-0.16-0.01-0.32-0.01-0.48-0.01h-23.61c4.84-3.19,10.82-4.39,18.22-2.27
				C167.64,263.74,169.6,264.49,171.65,265.48z"/>
			<path class="st5" d="M203.71,317.52h-0.01c-0.01,0.32-0.01,0.64,0,0.95v1.1c-2.74,2.95-6.12,5.85-10.2,8.2
				c-11.8,6.78-29.51,8.86-54.8-6.25c-0.02-0.5-0.03-1.01-0.03-1.52v-17.8c-1.11-0.81-1.71-1.31-1.71-1.31
				c0.58-0.39,1.15-0.78,1.71-1.15v-12.25h32.5c0.64,0,1.27,0.02,1.9,0.05c0.03,0,0.06,0.01,0.09,0.01
				c4.39,0.26,8.57,1.37,12.49,3.33c5.4,2.69,9.83,6.67,12.96,11.58c1.45,2.28,2.61,4.75,3.47,7.38c0.37,1.15,0.8,2.56,1.13,4.04
				C203.48,315.09,203.67,316.34,203.71,317.52z"/>
			<path class="st5" d="M210.64,301.29c-0.01,0.06-0.03,0.12-0.06,0.18c0.02-0.07,0.04-0.14,0.05-0.2
				C210.63,301.27,210.64,301.28,210.64,301.29z"/>
		</g>
		<g>
			<path class="st3" d="M198.61,302.46c-26.13,21.38-53.01,4.74-59.94-0.26c-1.11-0.81-1.71-1.31-1.71-1.31
				c0.58-0.39,1.15-0.78,1.71-1.15c13.92-9.19,25.33-12.24,34.4-12.2c0.03,0,0.06,0.01,0.09,0.01c4.39,0.26,8.57,1.37,12.49,3.33
				C191.05,293.57,195.48,297.55,198.61,302.46z"/>
		</g>
		<g>
			<path class="st4" d="M228.34,305.46v35.84l-1.84,0.62l1.18-3.55c-1.22-5.52-1.88-11.19-1.96-16.93v-0.91l-0.01-0.27l0.01-0.26
				v-0.94c0.11-3-0.2-5.86-0.71-8.49v-0.01L228.34,305.46z"/>
		</g>
		<g>
			<path class="st5" d="M203.95,319.29c-0.08,0.15-0.16,0.3-0.25,0.44c-3.18,5.59-7.6,10.71-13.54,12.62c0,0,1.34-1.81,3.34-4.58
				c2.61-3.64,6.37-8.92,9.71-13.89c0.27,1.21,0.46,2.46,0.5,3.64h-0.01c-0.01,0.32-0.01,0.64,0,0.95v1.1
				C203.78,319.47,203.86,319.38,203.95,319.29z"/>
			<path class="st5" d="M210.64,301.29c-0.01,0.06-0.03,0.12-0.06,0.18c0.02-0.07,0.04-0.14,0.05-0.2
				C210.63,301.27,210.64,301.28,210.64,301.29z"/>
		</g>
		<g>
			<path class="st5" d="M199.63,453.85c0,0-3.79,13.28,27.19,23.4h31.62c0,0,23.48-9.84,23.48-23.08L199.63,453.85z"/>
		</g>
		<g>
			<path class="st6" d="M199.32,453.79c0,0,22.91,1.13,28.71-10.36c0,0,21.83,4.6,26.34,0c0,0,8.37,10.42,27.55,10.74L199.32,453.79
				z"/>
		</g>
		<g class="st13">
			<path class="st5" d="M154.7,402.4c-10.33-2.06-19.98-6.02-28.57-11.51c-1.69-1.07-3.33-2.2-4.93-3.38
				c-6.7-4.98-12.64-10.93-17.61-17.64c-0.66-0.89-1.3-1.79-1.92-2.71l-1.41-17.31l-0.25-5.25v-0.02l-1.36-28.43l6.62-3.06
				c0,0,4.82,4.72,11.66,13.61c0.05,0.07,0.1,0.13,0.16,0.2v0.01c0.4,0.52,0.81,1.05,1.22,1.6v4.85
				c3.31,13.12,11.4,24.36,22.29,31.76C145.89,376.03,150.86,388.51,154.7,402.4z"/>
			<path class="st5" d="M178.72,509.1l-1.43-1.45l-0.09-0.09c-0.04-0.04-0.08-0.08-0.11-0.11l-10.2-10.37
				c-0.02-0.03-0.05-0.05-0.07-0.08l-22.53-22.9l-22.42-32.4l-8.57-21.52l-6.29-15.81c1.55,1.2,3.16,2.35,4.78,3.45
				c-0.05-0.22-0.1-0.45-0.16-0.69c0.06,0.23,0.12,0.46,0.17,0.69c8.18,5.55,17.18,9.99,26.77,13.09c6.78,2.2,13.85,3.73,21.14,4.51
				c0.49,3.05,0.92,6.16,1.28,9.32c0,0,0.55,8.82,2.9,22.09v0.03c1.81,10.12,4.65,22.85,9.11,36.22l5.67,15.88L178.72,509.1z"/>
		</g>
		<g class="st13">
			<path class="st5" d="M369,407.32c-1.17,0.81-2.37,1.6-3.58,2.37c-7.57,4.78-15.67,8.56-24.1,11.27
				c-7.14,2.29-14.52,3.82-22.02,4.56c-0.86,4.65-1.58,9.44-2.14,14.37c0,0-0.44,6.98-2.2,17.88l-0.01,0.1
				c-1.72,10.68-4.71,25.1-9.8,40.36l-5.35,13.35v0.01l-0.38,0.94l0.39-0.34l3.43-3l0.08-0.06l12.13-10.58
				c0.05-0.04,0.11-0.09,0.16-0.14c0.01-0.02,0.03-0.03,0.04-0.04c0.04-0.03,0.07-0.07,0.11-0.1l17.25-15.04l24.25-32.09
				l10.12-22.39l5.65-23.96l0.05-0.42C371.75,405.38,370.39,406.37,369,407.32z M377.05,320.8l-4.63-0.74c0,0-3.9,3.7-9.65,10.78
				v0.01c-0.23,0.28-0.46,0.56-0.68,0.85c-0.84,3.89-2.13,7.67-3.83,11.32c-0.2,0.42-0.4,0.84-0.61,1.26
				c-4.05,8.12-9.87,14.9-16.88,19.97c-5.81,10.91-11.42,23.7-15.84,38.23c9.6-1.87,18.82-5.41,27.26-10.51h0.01
				c0.49-0.29,0.97-0.59,1.46-0.9c1.76-1.11,3.48-2.29,5.14-3.53c5.82-4.3,11.04-9.32,15.55-14.94c1.06-1.32,2.08-2.68,3.06-4.06
				c0.01-0.01,0.01-0.01,0.01-0.01l1.7-9.61l0.01-0.04v-0.03l0.01-0.04l0.9-5.07v-0.01l0.01-0.04l1.3-7.33v-24.88L377.05,320.8z"/>
		</g>
		<g>
			<path class="st4" d="M210.16,365.7l-3.27-0.75l1.28-3.71C208.8,362.77,209.47,364.25,210.16,365.7z"/>
			<path class="st4" d="M278.7,365.32l-8.36,1.68l-11.52,2.31l-0.02,0.01l-0.33,0.06l-14.64,2.94c-2.48-3.13-4.72-6.41-6.71-9.83
				c-3.88-6.64-6.82-13.77-8.73-21.2l16.17-5.45l12.44,1.37c1.08,3.21,2.51,6.21,3.97,9.05c0.39,0.76,0.81,1.52,1.26,2.26
				c0.91,1.56,1.95,3.07,3.07,4.53c0.01,0.01,0.02,0.02,0.03,0.03c0.47,0.4,0.98,0.82,1.54,1.22l0.36,1.07
				c1.7,1.96,3.6,3.83,5.7,5.6C274.72,362.49,276.64,363.94,278.7,365.32z"/>
		</g>
		<g class="st14">
			<path class="st3" d="M255.26,471.04c0,2.09-6.55,3.78-14.64,3.78c-8.08,0-14.64-1.69-14.64-3.78c0-2.08,6.55-3.78,14.64-3.78
				C248.7,467.26,255.26,468.96,255.26,471.04z"/>
		</g>
		<g>
			<path class="st0" d="M157.89,402.97c-1.07-0.17-2.14-0.36-3.19-0.57c-10.33-2.06-19.98-6.02-28.57-11.51
				c-2.98-8.66-5.13-16.87-5.9-23.93l-1.92-27.28v-6.32c3.31,13.12,11.4,24.36,22.29,31.76c3.08,2.09,6.38,3.88,9.86,5.31l4.74,8.46
				L157.89,402.97z"/>
			<path class="st0" d="M165.49,471.16c0,0-14.34-23.48-26.92-50.25c6.78,2.2,13.85,3.73,21.14,4.51c0.23,0.03,0.46,0.05,0.69,0.08
				l3.49,31.33v0.03L165.49,471.16z"/>
		</g>
		<g>
			<path class="st0" d="M341.32,420.96c-12.66,29.17-28.53,56.29-28.53,56.29l2.16-19.38l0.01-0.1l3.6-32.18
				c0.25-0.02,0.49-0.04,0.74-0.07C326.8,424.78,334.18,423.25,341.32,420.96z"/>
			<path class="st0" d="M358.26,343.02v2.75l-1.92,27.28c-0.62,5.68-2.09,12.11-4.14,18.92h-0.01c-8.44,5.1-17.66,8.64-27.26,10.51
				c-1.28,0.25-2.57,0.47-3.87,0.66l2.03-18.16l7.65-15c3.54-1.55,6.9-3.47,10.03-5.73c7.01-5.07,12.83-11.85,16.88-19.97
				C357.86,343.86,358.06,343.44,358.26,343.02z"/>
		</g>
		<g class="st14">
			<path class="st3" d="M336.07,236.69c0,1.29-0.34,2.53-0.96,3.67c-2.1,3.88-7.43,6.63-13.68,6.63c-6.52,0-12.06-3-13.94-7.16
				c-0.46-0.99-0.7-2.05-0.7-3.14c0-0.24,0.01-0.47,0.04-0.7c0.66-0.01,1.32-0.02,1.99-0.02h27.21
				C336.06,236.21,336.07,236.45,336.07,236.69z"/>
		</g>
		<g>
			<path class="st8" d="M369.46,277.7c-0.23-0.23-2.48-2.52-6.11-5.67c-2.24-1.96-5.01-4.24-8.14-6.56
				c-13.84-10.27-34.83-21.43-49.39-8.9l-8.36-9.48c2.84-2.75,6.19-5.35,10.03-7.26c7.44-3.7,16.72-4.83,27.62,0.53
				c5.6,2.74,11.63,7.2,18.07,13.9l7.79,11.21l2.38,3.43L369.46,277.7z"/>
		</g>
		<g class="st14">
			<ellipse class="st3" cx="206.89" cy="257.21" rx="14.64" ry="10.3"/>
		</g>
		<g>
			<path class="st8" d="M206.89,262.28l-7.22,3.88l-3.94,2.12c-9.51-5.02-19.99-6.05-29.95-5.08c-4.36,0.43-8.62,1.24-12.65,2.27
				h-27.52c26.59-26.12,52.6-19.97,67.77-12.24C201.8,257.51,206.89,262.28,206.89,262.28z"/>
		</g>
		<g class="st15">
			<path class="st16" d="M214.88,390.86c-0.17,0.12-0.35,0.23-0.53,0.34c-0.19-0.22-0.29-0.34-0.29-0.34H214.88z"/>
			<path class="st16" d="M248.76,406.9c-5.57,1.03-10.91,0.01-15.66-1.93c1.43-1.07,2.85-2.19,4.24-3.35
				c0.16-0.13,0.32-0.26,0.48-0.4c0.6-0.5,1.2-1.02,1.79-1.54c0.93,0.82,1.87,1.61,2.82,2.39c0.62,0.07,1.26,0.13,1.89,0.16
				c-0.56,0.02-1.11,0.03-1.67,0.02C244.64,403.88,246.68,405.43,248.76,406.9z"/>
			<path class="st16" d="M270.35,390.86c-0.04,0.06-0.09,0.12-0.13,0.18c-0.24,0.35-0.49,0.69-0.73,1.02
				c-0.33,0.45-0.66,0.89-0.99,1.31c-0.48-0.27-0.96-0.55-1.43-0.83c-0.03-0.02-0.07-0.04-0.1-0.06c-0.88-0.52-1.74-1.06-2.6-1.62
				H270.35z"/>
		</g>
		<g>
			<g>
				<path class="st4" d="M214.88,390.86c-0.17,0.12-0.35,0.23-0.53,0.34c0.09,0.1,0.2,0.23,0.34,0.38c0.14,0.16,0.3,0.34,0.49,0.54
					c-0.77,0-1.51-0.01-2.23-0.05h-0.02c-22.26-0.8-20.26-14.11-15.25-24.44h0.01c1.84-1.03,3.62-2.16,5.35-3.41
					c1.39-1,3.02-2.32,4.77-3.85c0.12,0.29,0.24,0.58,0.36,0.87c0.63,1.53,1.3,3.01,1.99,4.46v0.01c3.82,8.08,8.32,14.9,12.02,19.87
					c-1.06,0.86-2.14,1.69-3.24,2.48C217.61,389.04,216.26,389.98,214.88,390.86z"/>
				<path class="st4" d="M242.43,402.07c-1.59-0.17-3.13-0.47-4.61-0.85c0.6-0.5,1.2-1.02,1.79-1.54
					C240.54,400.5,241.48,401.29,242.43,402.07z"/>
				<path class="st4" d="M255.47,384.28l-0.86-0.5l0.84,0.48C255.46,384.27,255.46,384.27,255.47,384.28z"/>
				<path class="st4" d="M268.04,391.49c-0.14,0.16-0.28,0.32-0.43,0.47c-0.18,0.2-0.36,0.39-0.54,0.58
					c-0.03-0.02-0.07-0.04-0.1-0.06c-0.88-0.52-1.74-1.06-2.6-1.62c-3.07-1.97-6.03-4.17-8.87-6.57l11.44,6.57L268.04,391.49z"/>
			</g>
			<g>
				<path class="st4" d="M244.32,402.23c-0.56,0.02-1.11,0.03-1.67,0.02c-1.73-0.02-3.51-0.21-5.31-0.63
					c0.16-0.13,0.32-0.26,0.48-0.4c0.6-0.5,1.2-1.02,1.79-1.54c0.93,0.82,1.87,1.61,2.82,2.39
					C243.05,402.14,243.69,402.2,244.32,402.23z"/>
				<path class="st4" d="M269.49,392.06c-0.61-0.02-1.24-0.06-1.88-0.1h-0.05c0,0-0.2,0.19-0.59,0.52c-0.88-0.52-1.74-1.06-2.6-1.62
					c-3.07-1.97-6.03-4.17-8.87-6.57c-0.01-0.01-0.01-0.01-0.02-0.01h-0.01l-0.86-0.5l-0.29-0.17l-0.59-0.34l-3.91-2.24
					c0.51-0.15,1-0.32,1.48-0.51c-1.14-1.09-2.25-2.21-3.34-3.37c-0.29-0.31-0.57-0.62-0.85-0.94l11.4-6.72l0.29-0.17l0.02-0.01
					l10.93-6.46l3.18-1.88c1.79,1.52,3.71,2.97,5.77,4.35c0.63,0.44,1.28,0.86,1.94,1.27c3.44,2.16,7.12,3.89,10.98,5.18
					C295.27,381.97,293.8,393.04,269.49,392.06z"/>
			</g>
		</g>
		<g>
			<path class="st0" d="M260.51,380.11c-1.88,1.45-4.05,2.42-6.34,3.04c-0.14,0.05-0.29,0.09-0.44,0.12l-3.91-2.24
				c0.51-0.15,1-0.32,1.48-0.51c-1.14-1.09-2.25-2.21-3.34-3.37c-0.29-0.31-0.57-0.62-0.85-0.94c-1.14-1.27-2.23-2.56-3.28-3.89
				c-2.48-3.13-4.72-6.41-6.71-9.83c-3.88-6.64-6.82-13.77-8.73-21.2l-0.05,0.01l-1.84,0.62l1.18-3.55l0.66-1.98l16.22-48.85
				l10.54,31.54v0.01c0.01,1.34,0,2.66,0,3.83c-0.02,3.39-0.02,5.09,0.12,6.45c0.3,2.76,0.93,5.37,1.78,7.84
				c1.08,3.21,2.51,6.21,3.97,9.05c0.39,0.76,0.81,1.52,1.26,2.26c0.91,1.56,1.95,3.07,3.07,4.53c0.01,0.01,0.02,0.02,0.03,0.03
				c0.47,0.4,0.98,0.82,1.54,1.22l0.36,1.07l0.81,2.43c0.78,1.83,1.34,3.51,1.71,5.05c0.36,1.51,0.55,2.89,0.59,4.15
				C270.72,377.86,260.51,380.11,260.51,380.11z"/>
		</g>
		<g>
			<path class="st10" d="M214.88,390.86c-0.17,0.12-0.35,0.23-0.53,0.34c0.09,0.1,0.2,0.23,0.34,0.38
				c-0.21,0.01-0.42,0.01-0.63,0.01h-0.32c-3.81-0.05-6.85-0.94-6.85-2.04c0-1.12,3.21-2.03,7.17-2.03c1.89,0,3.6,0.21,4.88,0.54
				C217.61,389.04,216.26,389.98,214.88,390.86z"/>
		</g>
		<g>
			<path class="st10" d="M282.27,389.55c0,1.12-3.21,2.03-7.17,2.03c-3.96,0-7.17-0.91-7.17-2.03c0-1.12,3.21-2.03,7.17-2.03
				C279.06,387.52,282.27,388.43,282.27,389.55z"/>
		</g>
		<g class="st14">
			<path class="st3" d="M258.8,371.53c0,3.87-3.03,7.23-7.5,8.99c-1.14-1.09-2.25-2.21-3.34-3.37c-0.29-0.31-0.57-0.62-0.85-0.94
				c-1.14-1.27-2.23-2.56-3.28-3.89c-2.48-3.13-4.72-6.41-6.71-9.83c2.09-0.8,4.49-1.26,7.04-1.26c7.03,0,12.91,3.49,14.31,8.15
				c0.02,0.03,0.03,0.07,0.04,0.11C258.7,370.15,258.8,370.83,258.8,371.53z"/>
		</g>
		<g>
			<path class="st11" d="M185.82,527.12"/>
		</g>
		<g>
			<path class="st8" d="M373.08,404.37c-1.33,1.01-2.69,2-4.08,2.95c-0.27,1.43-0.54,2.85-0.82,4.26c-0.24,1.19-0.48,2.37-0.73,3.53
				c-0.71,3.35-1.45,6.58-2.22,9.62c-0.15,0.6-0.3,1.18-0.46,1.76c-0.92,3.47-1.88,6.67-2.89,9.49c-0.94,2.11-1.97,4.28-3.09,6.5
				c-0.29,0.58-0.59,1.16-0.9,1.74c-1.16,2.23-2.41,4.51-3.77,6.84c-0.31,0.54-0.63,1.08-0.96,1.63c-0.33,0.56-0.68,1.13-1.03,1.7
				c-0.38,0.63-0.78,1.27-1.19,1.91c-0.45,0.72-0.91,1.44-1.39,2.17c-0.47,0.72-0.95,1.45-1.45,2.19c-0.45,0.68-0.92,1.36-1.39,2.05
				c-0.15,0.21-0.3,0.43-0.45,0.64c-0.4,0.58-0.81,1.17-1.24,1.76c-1.86,2.61-3.86,5.27-6,7.96c-0.3,0.38-0.6,0.76-0.92,1.15
				c-0.61,0.77-1.24,1.54-1.89,2.32c0,0,0,0,0,0.01c-0.96,1.16-1.95,2.34-2.97,3.51c-0.33,0.39-0.67,0.79-1.03,1.18
				c-0.68,0.79-1.38,1.58-2.1,2.37c-0.7,0.79-1.42,1.58-2.17,2.38c-0.36,0.4-0.73,0.8-1.12,1.2c-0.36,0.4-0.74,0.8-1.13,1.2
				c-0.37,0.4-0.75,0.8-1.15,1.2c-1.45,1.52-2.95,3.03-4.49,4.54c-0.51,0.51-1.03,1.02-1.56,1.52c-0.42,0.42-0.84,0.83-1.26,1.22
				c-0.49,0.48-0.98,0.94-1.47,1.4c-0.04,0.03-0.07,0.07-0.11,0.1c-0.01,0.01-0.03,0.02-0.04,0.04c-0.05,0.05-0.11,0.1-0.16,0.14
				c-2.01,1.9-4.08,3.8-6.24,5.69c-0.46,0.42-0.93,0.82-1.4,1.23c-0.94,0.84-1.9,1.67-2.88,2.48c-1.67,1.43-3.37,2.85-5.12,4.27
				v-0.03c0-0.16,0-0.33-0.01-0.51v-0.1c0-0.38-0.01-0.79-0.03-1.24c-0.02-0.35-0.03-0.71-0.07-1.09c0-0.06,0-0.11-0.01-0.17
				c-0.01-0.27-0.03-0.55-0.06-0.84c-0.03-0.26-0.05-0.53-0.08-0.81c0-0.06-0.01-0.13-0.02-0.2c-0.05-0.47-0.11-0.95-0.18-1.44
				c-0.04-0.31-0.09-0.63-0.15-0.95c-0.05-0.3-0.1-0.6-0.16-0.91c-0.03-0.21-0.08-0.42-0.12-0.63c-0.05-0.26-0.11-0.53-0.17-0.8
				c-0.06-0.28-0.13-0.57-0.2-0.86c-0.07-0.29-0.14-0.58-0.22-0.87c-0.16-0.58-0.33-1.18-0.52-1.77c-0.09-0.3-0.19-0.61-0.3-0.92
				c-0.09-0.25-0.18-0.51-0.27-0.76c-0.1-0.27-0.21-0.55-0.32-0.83c-0.14-0.35-0.28-0.69-0.44-1.04c-0.1-0.23-0.21-0.47-0.32-0.7
				c-0.01-0.03-0.02-0.05-0.03-0.08c-0.1-0.21-0.2-0.41-0.3-0.62c-0.15-0.31-0.3-0.61-0.47-0.91c-0.14-0.27-0.29-0.54-0.45-0.8
				c-0.17-0.32-0.36-0.64-0.57-0.95c-0.01-0.03-0.02-0.06-0.04-0.08c-0.19-0.31-0.39-0.62-0.6-0.92c-0.02-0.03-0.04-0.05-0.05-0.08
				c-0.2-0.28-0.4-0.56-0.6-0.84c-0.35-0.47-0.72-0.94-1.11-1.4c-0.14-0.16-0.27-0.32-0.42-0.48c-0.16-0.19-0.33-0.37-0.51-0.56
				c-0.24-0.26-0.49-0.52-0.75-0.77c-0.01-0.01-0.02-0.02-0.03-0.03c-0.23-0.24-0.48-0.47-0.73-0.69c-0.24-0.23-0.5-0.45-0.75-0.66
				c-0.16-0.14-0.31-0.27-0.47-0.39c-0.24-0.2-0.49-0.4-0.75-0.59c-0.35-0.26-0.7-0.52-1.07-0.77c0,0,6.37,21.3-5.63,29.07
				c0,0-39.4-12.46-81.66,0c-12-7.77-5.63-29.07-5.63-29.07c-11.03,7.5-13.04,20.62-13.31,27.32c-0.52-0.49-1.04-0.99-1.56-1.49
				c-0.46-0.43-0.93-0.87-1.38-1.31l-0.09-0.09c-0.04-0.04-0.08-0.08-0.11-0.11c-1.82-1.76-3.6-3.53-5.34-5.3
				c-0.78-0.8-1.56-1.59-2.31-2.39c-0.08-0.08-0.16-0.15-0.23-0.23c-0.78-0.81-1.55-1.63-2.32-2.45c-0.02-0.03-0.05-0.05-0.07-0.08
				c-0.83-0.87-1.63-1.74-2.42-2.61c-1.59-1.74-3.15-3.49-4.67-5.23c-1.52-1.75-3.01-3.49-4.46-5.24c-0.41-0.49-0.81-0.97-1.2-1.45
				c-0.57-0.69-1.13-1.38-1.68-2.07c-0.59-0.73-1.17-1.46-1.73-2.18c-0.56-0.7-1.1-1.39-1.64-2.09c-0.05-0.07-0.09-0.13-0.13-0.18
				c-1.33-1.72-2.62-3.43-3.88-5.15c-1.29-1.75-2.54-3.5-3.76-5.24c-0.54-0.77-1.07-1.53-1.59-2.3c-0.12-0.18-0.24-0.36-0.36-0.53
				c-0.39-0.57-0.78-1.15-1.16-1.72c-1.54-2.3-3.02-4.59-4.45-6.87c-0.34-0.55-0.68-1.09-1.01-1.63c-0.56-0.92-1.12-1.84-1.67-2.75
				c-0.95-1.6-1.88-3.19-2.78-4.77c-3-5.25-5.73-10.47-8.21-15.62c-0.41-0.84-0.81-1.68-1.2-2.52c-0.26-0.56-0.52-1.11-0.77-1.66
				c-0.26-0.56-0.52-1.12-0.76-1.68c-0.26-0.56-0.52-1.12-0.76-1.69c-0.37-0.83-0.74-1.66-1.09-2.49c-0.36-0.83-0.71-1.66-1.05-2.48
				c-0.35-0.83-0.69-1.65-1.02-2.47c0-0.02-0.01-0.05-0.03-0.09c-0.01-0.06-0.03-0.13-0.05-0.23c-0.06-0.23-0.14-0.57-0.25-1.02
				c-0.04-0.17-0.08-0.35-0.13-0.55c-0.04-0.14-0.07-0.29-0.11-0.44c-0.07-0.31-0.15-0.64-0.24-1.01c-0.01-0.05-0.02-0.11-0.04-0.16
				c-0.12-0.52-0.26-1.1-0.41-1.72c-0.09-0.42-0.2-0.87-0.31-1.34c-0.05-0.23-0.11-0.46-0.17-0.69c0.06,0.24,0.11,0.47,0.16,0.69
				c-1.62-1.1-3.23-2.25-4.78-3.45H107c-0.7-0.53-1.38-1.06-2.06-1.62l0.47,3.06c10.32,47.18,74.87,108.84,74.87,108.84
				s55.24,67.29,119.44,0c0,0,0.08-0.87,0.09-2.34c5.18-3.01,62.08-37.37,72.96-102.48l0.72-5.79
				C373.35,404.15,373.22,404.26,373.08,404.37z M357.36,235.97l0.25,0.84c0,0,0.02,0.01,0.05,0.04c0.02,0.02,0.06,0.04,0.1,0.07
				c0.81,0.63,4.79,3.78,8.95,8.46c0.34,0.38,0.67,0.76,1,1.16c0.17,0.19,0.34,0.39,0.5,0.59c0.22,0.27,0.44,0.54,0.66,0.81
				c0.31,0.39,0.61,0.78,0.92,1.18c0.36,0.48,0.72,0.97,1.07,1.47c0.05,0.07,0.11,0.15,0.16,0.23c0.76,1.08,1.48,2.22,2.15,3.38
				c0.22,0.39,0.43,0.78,0.64,1.17c0.23,0.42,0.45,0.85,0.65,1.29c0.08,0.17,0.16,0.33,0.24,0.49c0.25,0.55,0.5,1.11,0.72,1.68
				l1.08,40.87l0.55,21.1l0.01,0.35l0.58,21.89c0,0,0,0.05-0.01,0.15c-0.01,0.04-0.01,0.09-0.02,0.14c0,0.08-0.01,0.18-0.02,0.3
				c-0.02,0.16-0.04,0.34-0.06,0.56c-0.01,0.18-0.03,0.38-0.05,0.61c-0.03,0.23-0.05,0.48-0.08,0.76c-0.09,0.97-0.21,2.21-0.36,3.68
				c-0.03,0.27-0.06,0.56-0.09,0.85c-0.04,0.39-0.08,0.8-0.13,1.23c-0.02,0.18-0.04,0.37-0.06,0.56c-0.04,0.38-0.08,0.77-0.12,1.17
				c-0.04,0.4-0.09,0.81-0.13,1.23c-0.16,1.51-0.34,3.14-0.54,4.88c-0.05,0.43-0.1,0.86-0.15,1.3c-0.14,1.24-0.29,2.53-0.45,3.86
				c-0.06,0.53-0.13,1.07-0.19,1.61c-0.07,0.54-0.13,1.09-0.2,1.65c-0.07,0.55-0.14,1.12-0.21,1.69c-0.03,0.28-0.07,0.57-0.11,0.86
				c-0.07,0.57-0.14,1.15-0.22,1.73c-0.03,0.24-0.06,0.49-0.09,0.74c1.06-1.32,2.08-2.68,3.06-4.06c0.01-0.01,0.01-0.01,0.01-0.01
				c0.21-0.29,0.41-0.59,0.61-0.88v-0.01l0.79-6.33l0.3-2.39l0.01-0.04v-0.03l0.01-0.04l1.22-9.8c0.06-0.27,0.13-0.55,0.19-0.83
				c0.13-0.53,0.26-1.09,0.39-1.65c0.07-0.31,0.15-0.63,0.22-0.95c0.01-0.01,0.01-0.02,0.01-0.03v-0.01
				c0.06-0.26,0.12-0.53,0.18-0.8c2.85-12.39,7.01-31.48,10.3-50.61c0.42-2.41,0.82-4.83,1.2-7.23v-50.93H357.36z M274.99,98.67
				c0,0-115.82-31.75-179.81,103.82c0,0-1.11,4.18-2.66,11.46h39.47l10.17-31.2c0,0,0.01-0.01,0.02-0.02
				c0.01-0.02,0.03-0.04,0.06-0.06c0.02-0.02,0.04-0.05,0.08-0.08l0.1-0.1c0.04-0.04,0.08-0.09,0.14-0.14
				c0.21-0.21,0.5-0.5,0.88-0.85c0.19-0.19,0.4-0.38,0.63-0.59l0.08-0.08c0.26-0.24,0.55-0.5,0.86-0.77c0.35-0.31,0.74-0.64,1.16-1
				c0.14-0.13,0.28-0.25,0.42-0.37c0.2-0.16,0.4-0.33,0.61-0.5c0.08-0.06,0.16-0.13,0.25-0.2c0.14-0.12,0.29-0.24,0.44-0.36
				c0.16-0.13,0.33-0.26,0.49-0.4c0.13-0.1,0.25-0.2,0.38-0.3c0.08-0.06,0.16-0.13,0.25-0.19c0.07-0.06,0.14-0.12,0.21-0.18
				c0.04-0.02,0.07-0.05,0.11-0.08c0.33-0.25,0.67-0.52,1.02-0.78c0.46-0.35,0.94-0.7,1.44-1.07c0.01,0,0.01-0.01,0.02-0.01
				c0.49-0.36,1-0.73,1.53-1.11c0.01,0,0.03-0.01,0.04-0.02c0.54-0.38,1.1-0.77,1.68-1.16h0.01c0.05-0.04,0.11-0.08,0.16-0.12
				c0.24-0.16,0.48-0.32,0.72-0.47c0.3-0.19,0.6-0.39,0.91-0.59s0.62-0.4,0.94-0.6c0.79-0.5,1.61-1,2.46-1.51
				c0.11-0.06,0.22-0.13,0.33-0.2c0.74-0.44,1.51-0.88,2.3-1.32c0.03-0.01,0.05-0.03,0.08-0.05c0.82-0.45,1.66-0.9,2.52-1.36
				c0.06-0.03,0.13-0.06,0.2-0.1c0.48-0.25,0.97-0.5,1.46-0.75c0.49-0.25,0.99-0.49,1.5-0.74c0.51-0.25,1.02-0.49,1.54-0.73
				c0.48-0.22,0.95-0.44,1.44-0.66c0.61-0.27,1.23-0.54,1.85-0.81c0.52-0.22,1.05-0.44,1.58-0.66c0.61-0.25,1.21-0.49,1.83-0.73
				c1.55-0.6,3.15-1.18,4.8-1.74c0.18-0.06,0.37-0.12,0.56-0.18c1.18-0.39,2.39-0.77,3.62-1.12c0.58-0.18,1.18-0.34,1.78-0.51
				c0.09-0.02,0.19-0.05,0.28-0.07c0.61-0.17,1.22-0.33,1.84-0.48c0.67-0.17,1.34-0.33,2.01-0.49c0.68-0.15,1.36-0.31,2.05-0.45
				c1.38-0.29,2.78-0.56,4.21-0.8c0.71-0.12,1.43-0.24,2.15-0.34c0.66-0.1,1.31-0.19,1.98-0.28c0.19-0.02,0.39-0.05,0.59-0.07
				c0.52-0.07,1.04-0.13,1.57-0.19c0.56-0.06,1.13-0.12,1.7-0.17c0.48-0.05,0.96-0.09,1.44-0.12c0.3-0.03,0.6-0.05,0.91-0.07
				c0.42-0.04,0.85-0.07,1.29-0.09c0.66-0.04,1.33-0.07,2-0.1c0.73-0.03,1.47-0.06,2.22-0.07c0.79-0.02,1.59-0.03,2.39-0.03
				c0.67,0,1.34,0.01,2.01,0.02c0,0,17.82,0.86,26.73,7.72c0,0,13.94-5.94,32.75-5.5c0.45,0.01,0.9,0.03,1.36,0.05
				s0.93,0.04,1.4,0.06c0.11,0.01,0.22,0.01,0.33,0.02c0.53,0.04,1.08,0.07,1.62,0.12c0.16,0.01,0.32,0.02,0.48,0.04
				c0.67,0.05,1.33,0.12,2.01,0.2c0.84,0.09,1.7,0.19,2.55,0.32c0.92,0.13,1.85,0.28,2.78,0.46c1.24,0.21,2.48,0.47,3.74,0.77
				c0.6,0.14,1.2,0.28,1.81,0.44c1.07,0.27,2.15,0.58,3.23,0.91c0.34,0.11,0.68,0.22,1.03,0.33c1.81,0.58,3.64,1.24,5.47,2
				c0.64,0.27,1.29,0.54,1.94,0.84c1.56,0.68,3.12,1.45,4.68,2.28c0.6,0.32,1.21,0.65,1.81,0.99c1.49,0.85,2.99,1.77,4.48,2.75
				c0.71,0.48,1.42,0.97,2.13,1.47c0.71,0.51,1.42,1.03,2.14,1.58c0.35,0.27,0.71,0.55,1.06,0.83c1.09,0.85,2.17,1.76,3.25,2.7
				c0.64,0.55,1.26,1.12,1.89,1.71c2.49,2.32,4.94,4.87,7.33,7.69c0.34,0.39,0.68,0.79,1.01,1.2c0.24,0.3,0.49,0.59,0.74,0.9
				c0,0,0,0.01,0,0.02c0.09,0.1,0.17,0.2,0.26,0.31c0.33,0.41,0.66,0.84,0.99,1.26c0.25,0.32,0.5,0.64,0.73,0.97
				c0.08,0.11,0.16,0.22,0.25,0.33c0.15,0.2,0.3,0.41,0.46,0.62c0.07,0.1,0.15,0.2,0.23,0.31c0.08,0.1,0.16,0.2,0.23,0.3
				c0,0.01,0,0.01,0,0.02c0.01,0.01,0.01,0.02,0.03,0.03c0.33,0.46,0.66,0.93,1,1.4c0.34,0.49,0.68,0.99,1.03,1.49
				c0.68,1,1.36,2.03,2.02,3.08c0.34,0.53,0.67,1.06,1,1.6l4.63,15.75h35.18C369.2,175.94,331.88,109.02,274.99,98.67z
				 M88.44,235.97c-0.44,2.74-0.87,5.6-1.29,8.58v63.71l8.59,27.34c0.28,5.63,0.8,11.91,1.7,18.74v0.01l0.01,0.03
				c0.34,2.58,0.73,5.25,1.19,7.99c0.96,1.64,1.97,3.23,3.03,4.79c0.62,0.92,1.26,1.82,1.92,2.71c-0.96-4.92-1.87-9.88-2.67-14.67
				l-0.91-10.6v-0.02l-2.17-25.23c0-2.69,0.04-5.51,0.11-8.43c0.03-1.28,0.07-2.59,0.11-3.91c0.01-0.17,0.02-0.35,0.02-0.53
				c0.03-0.75,0.06-1.5,0.09-2.26c0.01-0.18,0.02-0.37,0.03-0.55c0.03-0.58,0.06-1.16,0.08-1.74c0.01-0.07,0.01-0.15,0.01-0.23
				c0.02-0.32,0.03-0.64,0.05-0.96c0.01-0.1,0.01-0.2,0.02-0.3c0.04-0.67,0.08-1.34,0.12-2.01c0.06-0.94,0.12-1.87,0.19-2.82
				c0.01-0.12,0.01-0.24,0.03-0.36c0.03-0.53,0.07-1.06,0.12-1.59c0.04-0.63,0.1-1.27,0.15-1.91c0.04-0.48,0.09-0.95,0.13-1.42
				c0.04-0.5,0.09-1,0.14-1.5c0.06-0.62,0.12-1.24,0.19-1.86c0.08-0.76,0.16-1.51,0.25-2.26c0.04-0.4,0.09-0.79,0.14-1.18
				c0.09-0.71,0.17-1.41,0.27-2.11c0.05-0.4,0.1-0.79,0.16-1.18c0.1-0.77,0.21-1.53,0.33-2.28c0.08-0.56,0.17-1.12,0.26-1.68
				c0.14-0.88,0.29-1.76,0.44-2.63c0.13-0.72,0.27-1.44,0.4-2.15c0.18-0.94,0.37-1.87,0.57-2.8c0.12-0.55,0.24-1.1,0.36-1.64
				c0.14-0.61,0.28-1.23,0.44-1.83c0-0.04,0.01-0.07,0.02-0.11c0.03-0.15,0.07-0.3,0.12-0.45c0.12-0.5,0.25-0.98,0.37-1.46
				c0.09-0.34,0.18-0.67,0.27-1c0.09-0.33,0.18-0.66,0.28-0.99c0.19-0.66,0.38-1.31,0.58-1.95c0.1-0.33,0.21-0.67,0.32-1
				c0.1-0.3,0.2-0.6,0.3-0.9c0.1-0.31,0.21-0.62,0.32-0.93s0.22-0.61,0.33-0.92c0.14-0.4,0.29-0.79,0.44-1.17
				c0.29-0.77,0.6-1.52,0.92-2.26c0.13-0.29,0.26-0.59,0.4-0.87c0.1-0.19,0.19-0.38,0.3-0.57c0.1-0.2,0.21-0.4,0.32-0.6
				c0.18-0.32,0.37-0.64,0.57-0.95c0.08-0.14,0.17-0.28,0.27-0.42c0.21-0.32,0.43-0.65,0.66-0.96c0.25-0.35,0.51-0.7,0.78-1.04
				c0.6-0.76,1.23-1.5,1.89-2.2c0.31-0.33,0.62-0.65,0.93-0.96c0.24-0.26,0.49-0.5,0.74-0.72c0.27-0.27,0.56-0.53,0.84-0.78
				c0.23-0.22,0.44-0.41,0.67-0.59c0.31-0.28,0.63-0.55,0.95-0.81c1.04-0.87,2.07-1.65,3.03-2.34c0.19-0.14,0.37-0.27,0.56-0.4
				c1.11-0.78,2.11-1.42,2.91-1.91H88.44z"/>
		</g>
		<g>
			<g class="st13">
				<path class="st5" d="M369.48,251.98l2.93,68.08l4.64,1.08l-1.64-62.32c-2.01-5.09-5.42-9.74-8.71-13.45
					C367.96,247.63,368.96,249.88,369.48,251.98z"/>
			</g>
			<g class="st13">
				<path class="st5" d="M126.25,235.97c-12.59,15.11-17.76,45.35-19.78,63.14c-0.94,8.37-1.2,13.98-1.2,13.98l-6.62,3.06
					l-0.52-10.76c0.03-0.57,0.05-1.14,0.07-1.72c0.03-0.58,0.06-1.16,0.08-1.74c0.01-0.07,0.01-0.15,0.01-0.23
					c0.02-0.32,0.04-0.65,0.06-0.97c0-0.1,0.01-0.19,0.01-0.29c0.04-0.67,0.08-1.34,0.12-2.01c0.06-0.94,0.12-1.87,0.19-2.82
					c0.01-0.12,0.01-0.24,0.03-0.36c0.03-0.53,0.07-1.06,0.12-1.59c0.04-0.63,0.1-1.27,0.15-1.91c0.04-0.48,0.09-0.95,0.13-1.42
					c0.04-0.5,0.09-1,0.14-1.5c0.06-0.62,0.12-1.24,0.19-1.86c0.08-0.76,0.16-1.51,0.25-2.26c0.04-0.4,0.09-0.79,0.14-1.18
					c0.09-0.71,0.17-1.41,0.27-2.11c0.05-0.4,0.1-0.79,0.16-1.18c0.1-0.77,0.21-1.53,0.33-2.28c0.08-0.56,0.17-1.12,0.26-1.68
					c0.14-0.88,0.29-1.76,0.44-2.63c0.13-0.72,0.27-1.44,0.4-2.15c0.18-0.94,0.37-1.87,0.57-2.8c0.12-0.55,0.24-1.1,0.36-1.64
					c0.14-0.61,0.28-1.23,0.44-1.83c0-0.04,0.01-0.07,0.02-0.11c0.03-0.15,0.07-0.3,0.12-0.45c0.03-0.15,0.07-0.31,0.11-0.46
					c0.08-0.34,0.17-0.67,0.26-1c0.09-0.34,0.18-0.67,0.27-1c0.09-0.33,0.18-0.66,0.28-0.99c0.19-0.66,0.38-1.31,0.58-1.95
					c0.1-0.33,0.21-0.67,0.32-1c0.1-0.3,0.2-0.6,0.3-0.9c0.1-0.31,0.21-0.62,0.32-0.93s0.22-0.61,0.33-0.92
					c0.14-0.4,0.29-0.79,0.44-1.17c0.29-0.77,0.6-1.52,0.92-2.26c0.13-0.29,0.26-0.59,0.4-0.87c0.1-0.19,0.19-0.38,0.3-0.57
					c0.1-0.2,0.21-0.4,0.32-0.6c0.18-0.32,0.37-0.64,0.57-0.95c0.08-0.14,0.17-0.28,0.27-0.42c0.21-0.32,0.43-0.65,0.66-0.96
					c0.25-0.35,0.51-0.7,0.78-1.04c0.6-0.76,1.23-1.5,1.89-2.2c0.31-0.33,0.62-0.65,0.93-0.96c0.24-0.24,0.49-0.48,0.74-0.72
					c0.27-0.27,0.56-0.53,0.84-0.78c0.22-0.2,0.44-0.4,0.67-0.59c0.31-0.28,0.63-0.55,0.95-0.81c1.04-0.87,2.07-1.65,3.03-2.34
					c0.19-0.14,0.37-0.27,0.56-0.4c1.11-0.78,2.11-1.42,2.91-1.91H126.25z"/>
				<path class="st5" d="M157.8,170.55c-0.73,0.5-1.1,0.78-1.1,0.78l-14.86,42.62h-9.85l10.17-31.2c0,0,0.01-0.01,0.02-0.02
					c0.01-0.02,0.03-0.04,0.06-0.06c0.02-0.02,0.04-0.05,0.08-0.08l0.24-0.24c0.21-0.21,0.5-0.5,0.88-0.85
					c0.19-0.18,0.4-0.38,0.63-0.59l0.08-0.08c0.26-0.23,0.54-0.48,0.86-0.77c0.35-0.31,0.74-0.64,1.16-1
					c0.32-0.28,0.66-0.56,1.03-0.87c0.08-0.06,0.16-0.13,0.25-0.2c0.14-0.12,0.29-0.24,0.44-0.36c0.16-0.13,0.33-0.26,0.49-0.4
					c0.13-0.1,0.25-0.2,0.38-0.3c0.08-0.06,0.16-0.13,0.25-0.19c0.11-0.08,0.21-0.17,0.32-0.26c0.33-0.25,0.67-0.52,1.02-0.78
					c0.46-0.35,0.94-0.7,1.44-1.07c0.01,0,0.01-0.01,0.02-0.01c0.49-0.36,1-0.73,1.53-1.11c0.01,0,0.03-0.01,0.04-0.02
					c0.54-0.38,1.1-0.76,1.68-1.16h0.01c0.29-0.2,0.58-0.39,0.88-0.59c0.3-0.19,0.6-0.39,0.91-0.59S157.48,170.75,157.8,170.55z"/>
			</g>
			<g class="st13">
				<path class="st5" d="M350.9,213.95h-2.83l-10.03-27.47c0.66,0.83,1.32,1.67,1.98,2.54c0.08,0.11,0.16,0.22,0.25,0.33
					c0.15,0.2,0.3,0.41,0.46,0.62c0.07,0.1,0.15,0.2,0.23,0.31c0.08,0.11,0.16,0.21,0.23,0.32c0.01,0.01,0.01,0.02,0.03,0.03
					c0.33,0.46,0.66,0.93,1,1.4c0.34,0.49,0.68,0.99,1.03,1.49c0.68,1,1.35,2.03,2.02,3.08c0.34,0.53,0.67,1.06,1,1.6L350.9,213.95z
					"/>
			</g>
		</g>
	</g>
	<g>
		<g>
			<path class="st12" d="M361.88,435.99c9.95-27.85,15.75-92.91,15.75-92.95l-2.21-84.21c-4.86-12.3-17.82-22.02-17.82-22.02
				l-11.34-38.61c-38.88-63.49-101.24-36.89-101.24-36.89c-8.91-6.86-26.73-7.72-26.73-7.72c-47.79-0.86-76.13,29.17-76.13,29.17
				l-16.95,52.01c0,0-13.45,7.06-17.89,17.32c-7.78,17.99-9.44,46.59-9.47,67.26l3.08,35.85c4.43,26.57,12.24,58.34,12.45,59.19
				c12.36,30.51,32.93,64.09,66.86,96.07c0.27-6.7,2.28-19.82,13.31-27.32c0,0-6.36,21.31,5.63,29.08c42.26-12.47,81.66,0,81.66,0
				c12-7.77,5.63-29.08,5.63-29.08c11.76,7.99,13.27,22.37,13.34,28.56c1.68-1.19,3.39-2.43,5.13-3.73
				C336.05,481.5,352.85,456.2,361.88,435.99z"/>
			<path class="st12" d="M380.36,349.01l-2.44,19.55c1.01-6.87,2.12-14.65,3.25-23.03C380.89,346.75,380.61,347.93,380.36,349.01z"
				/>
		</g>
		<path class="st12" d="M382.28,300.86c0,0,30.32-30.32,20.02,26.88c0,0-16.02,77.08-44.05,67.43l6.86-97.74"/>
		<path class="st12" d="M97.72,300.86c0,0-30.32-30.32-20.02,26.88c0,0,16.02,77.08,44.05,67.43l-6.86-97.74"/>
		<path class="st12" d="M275.1,303.75c0,0,21.45,56.73,85.8,9.34C360.9,313.09,353.18,202.79,275.1,303.75z"/>
		<path class="st12" d="M289.69,304.32c0,0,19.73-30.03,63.49,0C353.18,304.32,320.58,331.78,289.69,304.32z"/>
		<path class="st12" d="M262.23,303.75v46.05c0,0,12.87,18.02,30.03,0L262.23,303.75z"/>
		<path class="st12" d="M277.67,300.32c0,0,5.15,26.71,20.59,31.66C298.27,331.98,277.67,304.04,277.67,300.32z"/>
		<path class="st12" d="M213.32,304.71c0,0-21.45,56.72-85.8,9.34C127.52,314.05,135.24,203.75,213.32,304.71z"/>
		<path class="st12" d="M200.45,300.89c0,0-19.73-30.03-63.49,0C136.96,300.89,169.57,328.35,200.45,300.89z"/>
		<path class="st12" d="M228.34,305.47v46.05c0,0-12.87,18.02-30.03,0L228.34,305.47z"/>
		<path class="st12" d="M210.75,300.7c0,0-5.15,26.71-20.59,31.66C190.16,332.35,210.75,304.41,210.75,300.7z"/>
		<path class="st12" d="M199.63,453.85c0,0-3.79,13.28,27.19,23.4h31.62c0,0,23.48-9.84,23.48-23.08L199.63,453.85z"/>
		<path class="st12" d="M199.32,453.79c0,0,22.91,1.13,28.71-10.36c0,0,21.83,4.6,26.34,0c0,0,8.37,10.42,27.55,10.74L199.32,453.79
			z"/>
		<path class="st12" d="M105.27,313.09c0,0,47.13,46.14,55.71,121.65c0,0,1.72,27.46,12.01,58.34l5.72,16.02l-34.43-35l-22.42-32.4
			l-8.57-21.52l-8.18-20.54l-3.22-29.69l-1.64-20.1l-1.61-33.7L105.27,313.09z"/>
		<path class="st12" d="M372.42,320.07c0,0-46.68,44.32-55.26,119.82c0,0-1.72,27.46-12.01,58.34l-5.72,14.3l33.59-29.3l24.25-32.09
			l10.12-22.4l5.64-23.96l3.22-29.69l5.1-28.73v-24.88L372.42,320.07z"/>
		<polygon class="st12" points="206.89,364.96 213.32,346.37 244.56,335.84 275.1,339.22 280.54,364.96 241.14,372.86 		"/>
		<path class="st12" d="M255.26,471.04c0,2.09-6.55,3.78-14.64,3.78c-8.08,0-14.64-1.69-14.64-3.78c0-2.08,6.55-3.78,14.64-3.78
			C248.7,467.27,255.26,468.96,255.26,471.04z"/>
		<path class="st12" d="M165.49,471.16c0,0-41.29-67.62-45.26-104.2l-1.92-27.28v-11.17l17.59,15.91l19.3,34.47L165.49,471.16z"/>
		<path class="st12" d="M312.79,477.25c0,0,39.57-67.62,43.55-104.2l1.92-27.28v-8.9l-17.59,13.65l-17.59,34.47L312.79,477.25z"/>
		<ellipse class="st12" cx="321.43" cy="236.7" rx="14.64" ry="10.3"/>
		<path class="st12" d="M286.25,262.28c0,0,24.88-51.78,66.92-8.02l16.3,23.46c0,0-51.71-53.2-72.07-9.44L286.25,262.28z"/>
		<ellipse class="st12" cx="206.89" cy="257.21" rx="14.64" ry="10.3"/>
		<path class="st12" d="M206.89,262.28c0,0-41.18-38.61-83.23,5.15v10.3c0,0,41.18-25.74,72.07-9.44L206.89,262.28z"/>
		<path class="st12" d="M214.06,390.86c0,0,30.5,37.01,56.3,0"/>
		<g>
			<path class="st12" d="M205.41,355.53c0,0-32.6,39.41,14.59,36.44c0,0,26.6,23.47,48.05-0.48"/>
			<path class="st12" d="M282.15,355.53c0,0,32.6,39.41-14.59,36.44c0,0-24.88,23.47-46.33-0.48"/>
		</g>
		<path class="st12" d="M221.23,357.81c0,0-10.48,16.72,11.83,24.52c0,0,17.73,5.3,27.45-2.21c0,0,15.59-3.43,7.53-22.31
			l-23.48-70.26L221.23,357.81z"/>
		<path class="st12" d="M221.23,389.56c0,1.12-3.21,2.03-7.17,2.03c-3.96,0-7.17-0.91-7.17-2.03s3.21-2.03,7.17-2.03
			C218.02,387.52,221.23,388.43,221.23,389.56z"/>
		<path class="st12" d="M282.27,389.56c0,1.12-3.21,2.03-7.17,2.03c-3.96,0-7.17-0.91-7.17-2.03s3.21-2.03,7.17-2.03
			C279.06,387.52,282.27,388.43,282.27,389.56z"/>
		<ellipse class="st12" cx="244.16" cy="371.53" rx="14.64" ry="10.3"/>
		<path class="st12" d="M185.82,527.12"/>
		<path class="st12" d="M396.48,240.24c0,0-41.31-126.99-121.49-141.57c0,0-115.82-31.75-179.81,103.82c0,0-11.34,42.9-12.15,92.67
			l12.71,40.44c0.28,5.63,0.8,11.91,1.7,18.75l0,0.01l0,0.03c0.44,3.34,0.97,6.82,1.61,10.41l6.35,41.03
			c10.32,47.17,74.87,108.83,74.87,108.83c0,0,55.24,67.29,119.44,0c0,0,0.08-0.87,0.08-2.34c5.19-3.01,62.09-37.38,72.96-102.48
			l7.59-60.83C385.86,325.54,399.06,265.51,396.48,240.24z M361.88,435.99c-9.52,21.3-27.64,48.24-62.08,76.23
			c0-5.85-1.23-20.86-13.34-29.09c0,0,6.36,21.31-5.63,29.08c0,0-39.4-12.47-81.66,0c-12-7.77-5.63-29.08-5.63-29.08
			c-11.03,7.5-13.04,20.62-13.31,27.32c-33.93-31.98-54.5-65.55-66.86-96.07c-0.21-0.85-8.02-32.62-12.45-59.19l-3.08-35.85
			c0.04-20.67,1.69-49.27,9.47-67.26c4.44-10.27,17.89-17.32,17.89-17.32l16.95-52.01c0,0,28.35-30.03,76.13-29.17
			c0,0,17.82,0.86,26.73,7.72c0,0,62.36-26.6,101.24,36.89l11.34,38.61c0,0,12.96,9.72,17.82,22.02l2.21,84.21
			C377.63,343.08,371.84,408.13,361.88,435.99z"/>
		<g>
			<path class="st12" d="M369.48,251.99l2.93,68.08l4.64,1.08l-1.64-62.32c-2.01-5.09-5.42-9.74-8.71-13.45
				C367.96,247.63,368.96,249.88,369.48,251.99z"/>
			<path class="st12" d="M105.27,313.09c0,0,3.37-74.84,31.69-85.13l19.73-56.63c0,0,0.38-0.28,1.1-0.78
				c-10.17,6.42-15.64,12.21-15.64,12.21l-16.95,52.01c0,0-13.45,7.06-17.89,17.32c-6.14,14.2-8.46,35-9.19,53.3l0.52,10.75
				L105.27,313.09z"/>
			<path class="st12" d="M353.18,227.96c0,0,1.07,1.07,2.66,2.82l-9.57-32.58c-2.64-4.32-5.4-8.2-8.23-11.72L353.18,227.96z"/>
		</g>
	</g>
</g>
</svg>
